<?xml version="1.0" standalone="no"?>
<!DOCTYPE svg PUBLIC "-//W3C//DTD SVG 20010904//EN"
 "http://www.w3.org/TR/2001/REC-SVG-20010904/DTD/svg10.dtd">
<svg version="1.0" xmlns="http://www.w3.org/2000/svg"
 width="1768.000000pt" height="1768.000000pt" viewBox="0 0 1768.000000 1768.000000"
 preserveAspectRatio="xMidYMid meet">
<metadata>
Created by potrace 1.11, written by Peter Selinger 2001-2013
</metadata>
<g transform="translate(0.000000,1768.000000) scale(0.100000,-0.100000)"
fill="#000000" stroke="none">
<path d="M5660 11620 l-35 -5 0 -67 c0 -36 -3 -69 -7 -73 -4 -4 -2 -19 3 -33
7 -18 7 -28 0 -30 -6 -2 -8 -8 -5 -14 12 -19 12 -108 1 -101 -6 3 -7 1 -3 -6
13 -20 15 -122 3 -114 -6 3 -7 1 -3 -6 11 -17 15 -161 5 -155 -5 3 -5 -6 1
-20 6 -16 6 -27 -1 -31 -5 -4 -6 -12 -2 -18 11 -19 11 -97 0 -90 -6 3 -7 1 -3
-6 12 -19 15 -161 3 -154 -6 3 -7 1 -3 -6 13 -20 15 -122 3 -114 -6 3 -7 1 -3
-6 13 -20 15 -122 3 -114 -6 3 -7 1 -3 -6 13 -20 15 -122 3 -114 -6 4 -7 1 -1
-8 12 -20 13 -239 1 -232 -6 3 -7 1 -3 -6 13 -20 15 -122 3 -114 -6 3 -7 1 -3
-6 12 -19 15 -122 4 -115 -6 4 -7 0 -1 -12 8 -15 9 -92 3 -239 0 -5 1 -34 4
-62 2 -34 0 -50 -7 -46 -6 3 -7 1 -3 -6 13 -20 15 -122 3 -114 -6 3 -7 1 -3
-6 13 -20 15 -122 3 -114 -6 3 -7 1 -3 -6 11 -17 15 -161 5 -155 -5 3 -5 -6 1
-20 6 -16 6 -27 -1 -31 -5 -4 -6 -12 -2 -18 11 -19 11 -97 0 -90 -6 3 -7 1 -3
-6 12 -19 15 -161 3 -154 -6 3 -7 1 -3 -6 13 -20 15 -122 3 -114 -6 3 -7 1 -3
-6 13 -20 15 -122 3 -114 -6 3 -7 1 -3 -6 13 -20 15 -122 3 -114 -6 4 -7 1 -1
-8 12 -20 13 -239 1 -232 -6 3 -7 1 -3 -6 13 -20 15 -122 3 -114 -6 3 -7 1 -3
-6 12 -19 15 -122 4 -115 -6 4 -7 0 -1 -12 8 -15 9 -92 3 -239 0 -5 1 -34 4
-62 2 -34 0 -50 -7 -46 -6 3 -7 1 -3 -6 13 -20 15 -122 3 -114 -6 4 -7 1 -1
-8 11 -18 13 -169 3 -190 -5 -9 -3 -21 4 -29 9 -10 9 -14 -1 -17 -6 -3 -10 -9
-6 -14 11 -19 13 -70 3 -63 -7 4 -7 -1 1 -15 8 -15 20 -21 43 -21 18 0 62 -1
99 -3 37 -1 65 0 63 3 -4 7 86 3 108 -5 9 -4 17 -3 17 1 0 11 77 9 104 -2 15
-6 17 -4 11 6 -6 9 -4 11 5 5 18 -11 90 -13 97 -3 2 5 9 6 14 2 13 -8 89 -13
89 -5 0 5 146 6 160 0 15 -5 36 -3 47 4 6 4 14 3 18 -3 15 -24 31 10 29 62 -1
29 3 59 10 67 8 11 8 13 0 8 -14 -8 -14 110 0 132 6 10 5 12 -2 7 -7 -4 -12
-1 -12 8 0 9 6 16 13 16 8 0 9 2 1 8 -15 9 -14 404 1 414 7 5 7 8 0 8 -13 0
-14 619 -1 639 6 9 5 12 0 8 -13 -7 -12 313 0 332 6 10 5 12 -2 7 -7 -4 -12
-1 -12 8 0 9 6 16 13 16 8 0 8 3 1 8 -13 9 -13 420 0 441 6 10 6 12 -2 7 -7
-4 -12 -1 -12 8 0 8 6 17 13 19 10 4 10 6 0 6 -7 1 -13 8 -13 17 0 9 5 12 13
8 9 -6 9 -4 1 7 -13 17 -13 387 0 408 6 10 6 12 -2 7 -7 -4 -12 -1 -12 8 0 8
6 17 13 19 10 4 10 6 0 6 -7 1 -13 8 -13 17 0 9 5 12 13 8 9 -6 9 -4 1 7 -13
17 -13 387 0 408 6 10 6 12 -2 7 -7 -4 -12 -1 -12 8 0 8 6 17 13 19 10 4 10 6
0 6 -7 1 -13 8 -13 17 0 9 5 12 13 8 9 -6 9 -4 1 7 -13 17 -13 387 0 408 6 10
6 12 -2 7 -7 -4 -12 -1 -12 8 0 8 6 17 13 19 10 4 10 6 0 6 -7 1 -13 8 -13 17
0 9 5 12 13 8 9 -6 9 -4 1 7 -13 17 -13 387 0 408 6 10 6 12 -2 7 -7 -4 -12
-1 -12 8 0 8 6 17 13 19 10 4 10 6 0 6 -7 1 -13 8 -13 17 0 9 5 12 12 8 7 -5
8 -3 2 7 -12 21 -13 59 0 59 7 0 7 3 -1 8 -12 8 -13 69 0 89 4 6 4 14 -1 17
-4 2 -8 39 -7 82 0 50 -3 78 -11 81 -16 6 -811 9 -854 3z"/>
<path d="M11123 11622 c-32 -3 -33 -5 -34 -48 -1 -24 -2 -54 -2 -66 -1 -13 -6
-26 -11 -30 -8 -5 -8 -8 0 -8 8 0 11 -83 11 -284 0 -182 -4 -283 -10 -279 -6
4 -7 1 -1 -8 14 -23 15 -81 1 -73 -9 6 -9 4 -1 -7 15 -18 15 -401 1 -392 -6 4
-7 1 -1 -8 13 -22 16 -81 2 -73 -7 5 -8 3 -2 -7 16 -24 13 -83 -5 -96 -14 -11
-14 -12 0 -8 13 5 15 -15 16 -164 0 -105 -3 -168 -9 -165 -5 3 -4 -3 3 -14 11
-17 10 -24 -2 -38 -8 -10 -9 -15 -3 -11 8 4 11 -17 11 -68 1 -70 -1 -74 -18
-64 -11 5 -19 14 -19 19 0 26 -208 199 -260 215 -11 4 -17 11 -14 17 4 7 2 8
-5 4 -14 -9 -53 3 -46 14 3 4 -3 7 -12 5 -10 -1 -30 4 -44 11 -15 7 -37 15
-50 18 -22 4 -38 9 -79 23 -8 3 -26 7 -40 9 -14 1 -45 6 -70 10 -83 12 -95 14
-137 15 -24 1 -43 6 -43 13 0 6 -4 6 -9 -2 -11 -17 -21 -17 -32 0 -6 9 -9 9
-9 1 0 -8 -9 -9 -30 -3 -16 5 -30 6 -30 2 0 -4 -24 -7 -53 -8 -57 -1 -136 -9
-182 -19 -16 -3 -42 -7 -57 -8 -15 -1 -28 -5 -28 -8 0 -4 -12 -9 -27 -12 -16
-3 -41 -11 -58 -17 -16 -6 -31 -11 -33 -11 -1 1 -15 -5 -31 -13 -16 -9 -31
-12 -35 -9 -3 4 -6 2 -6 -4 0 -6 -15 -16 -32 -24 -18 -7 -35 -16 -38 -19 -14
-17 -78 -49 -85 -42 -5 4 -5 1 -1 -5 4 -8 1 -13 -8 -13 -9 0 -16 -3 -16 -7 0
-5 -17 -19 -37 -33 -21 -14 -57 -44 -82 -67 -24 -24 -47 -40 -52 -37 -5 3 -9
-1 -9 -8 0 -7 -22 -38 -50 -68 -27 -30 -50 -58 -50 -62 0 -3 -6 -13 -14 -21
-8 -7 -31 -40 -52 -73 -20 -32 -42 -62 -48 -66 -6 -4 -7 -8 -3 -8 5 0 -1 -13
-12 -29 -11 -15 -18 -31 -14 -34 3 -4 -2 -9 -11 -13 -9 -3 -13 -10 -10 -15 3
-5 0 -9 -6 -9 -6 0 -9 -3 -6 -8 2 -4 -6 -30 -19 -57 -13 -28 -24 -58 -24 -67
-1 -9 -5 -20 -11 -23 -5 -3 -10 -15 -10 -26 0 -10 -5 -19 -11 -19 -5 0 -7 -4
-4 -10 3 -5 3 -16 -2 -22 -4 -7 -9 -22 -10 -33 -2 -11 -8 -21 -13 -23 -5 -2
-6 -10 -4 -17 3 -8 2 -20 -2 -27 -4 -7 -9 -21 -10 -33 -2 -19 -6 -36 -18 -94
-3 -13 -6 -41 -8 -62 -1 -22 -4 -39 -7 -39 -4 0 -8 -55 -9 -122 -2 -70 -8
-126 -14 -129 -7 -5 -7 -8 0 -10 6 -2 12 -38 13 -79 2 -41 6 -85 11 -97 4 -14
4 -23 -3 -23 -6 0 -6 -6 0 -18 7 -13 6 -23 -2 -32 -9 -10 -9 -11 1 -6 7 5 12
1 13 -11 0 -10 2 -27 5 -38 2 -11 5 -35 7 -52 1 -18 5 -33 9 -33 6 0 22 -73
18 -86 -1 -4 3 -10 10 -14 6 -4 12 -23 13 -42 1 -20 5 -34 10 -31 6 4 11 -15
10 -44 -1 -7 3 -10 8 -7 5 3 9 -2 9 -10 0 -8 -4 -18 -10 -21 -5 -3 -10 -12
-10 -18 0 -7 6 -4 11 7 10 16 16 9 48 -55 35 -71 57 -111 74 -133 4 -6 24 -36
44 -66 20 -30 42 -59 50 -63 7 -4 13 -15 13 -22 0 -8 5 -15 11 -15 5 0 7 -5 4
-10 -4 -6 -3 -9 2 -8 4 2 34 -23 65 -54 31 -32 62 -58 68 -58 5 0 10 -7 10
-15 0 -8 5 -15 11 -15 6 0 29 -15 52 -33 53 -42 185 -118 257 -148 30 -12 59
-26 64 -31 6 -4 20 -8 33 -8 13 0 23 -5 23 -12 0 -6 3 -9 6 -6 3 4 20 2 37 -3
18 -5 45 -12 62 -15 16 -3 32 -8 35 -12 3 -4 19 -8 35 -9 35 -1 110 -11 110
-13 0 -9 270 -14 310 -6 11 2 26 -2 34 -8 11 -8 13 -8 7 2 -8 13 -6 13 34 17
14 1 43 7 65 13 50 15 58 15 49 0 -4 -7 -3 -8 5 -4 6 4 9 11 6 16 -3 5 9 12
27 15 18 4 50 16 71 27 21 10 42 16 47 13 6 -3 10 -1 10 5 0 7 7 9 16 6 8 -3
13 -2 10 3 -3 5 11 16 32 25 43 20 91 47 107 61 7 6 24 19 39 30 15 11 38 29
50 40 12 11 40 35 61 53 21 17 34 32 29 32 -5 0 -3 4 5 9 8 5 24 7 36 5 14 -2
28 3 36 14 12 15 12 16 -1 6 -17 -13 -50 -15 -50 -2 0 4 4 8 9 8 5 0 12 8 15
18 3 9 14 22 24 28 17 11 18 8 18 -35 -1 -25 2 -57 7 -70 6 -19 4 -22 -9 -17
-13 5 -14 3 -7 -6 6 -7 10 -32 9 -56 -1 -24 2 -46 6 -48 5 -3 4 -13 0 -22 -10
-22 -8 -90 4 -101 12 -11 84 -22 84 -13 0 4 18 7 40 7 22 0 40 -2 40 -5 0 -8
105 -5 118 4 7 4 12 4 12 -1 0 -4 35 -7 77 -5 100 4 165 3 171 -3 2 -2 15 0
28 5 13 5 24 6 24 1 0 -12 33 -9 42 4 5 6 8 5 8 -3 0 -9 5 -10 18 -3 10 5 24
6 30 2 7 -4 23 -6 35 -5 12 1 38 3 58 3 l35 1 0 2260 0 2260 -20 0 c-12 0 -67
2 -124 3 -56 1 -102 -1 -102 -5 0 -4 -7 -5 -16 -1 -19 7 -464 10 -464 2 0 -3
-24 -3 -52 0 -29 4 -68 5 -85 3z m-743 -2342 c3 -1 10 -1 15 0 38 9 65 8 65
-3 0 -8 2 -9 8 -1 5 9 67 13 67 4 0 -1 18 -3 40 -5 37 -3 80 -11 80 -15 0 -1
14 -4 30 -6 44 -7 57 -13 50 -23 -3 -5 0 -13 6 -17 8 -4 9 -3 5 4 -8 13 16 17
28 5 3 -4 14 -8 24 -9 9 -2 18 -8 20 -13 2 -6 10 -11 17 -11 7 0 27 -13 44
-29 18 -17 35 -31 39 -33 4 -2 6 -7 4 -11 -1 -5 1 -6 6 -3 11 7 102 -91 102
-109 0 -7 7 -16 16 -19 8 -3 12 -10 9 -16 -3 -5 -1 -10 4 -10 6 0 11 -5 11
-10 0 -6 10 -31 23 -58 12 -26 22 -54 22 -62 0 -8 3 -17 7 -20 17 -13 32 -133
32 -255 0 -117 -10 -199 -31 -255 -3 -8 -8 -24 -10 -35 -6 -31 -74 -165 -84
-165 -5 0 -9 -5 -9 -11 0 -7 -13 -25 -30 -40 -16 -16 -27 -29 -24 -29 3 0 -9
-12 -28 -27 -18 -16 -42 -36 -54 -46 -26 -22 -105 -64 -156 -81 -27 -10 -40
-10 -49 -2 -9 8 -10 8 -6 0 14 -24 -67 -38 -223 -38 -132 0 -181 5 -199 18 -7
6 -27 9 -43 7 -19 -2 -28 1 -24 8 4 6 -2 8 -14 6 -11 -2 -27 3 -35 11 -8 9
-15 13 -15 9 0 -8 -109 51 -138 75 -14 11 -20 24 -16 31 5 8 3 9 -6 4 -12 -8
-35 14 -89 85 -14 19 -30 38 -34 41 -5 4 -10 18 -10 32 -1 14 -6 25 -12 24 -5
-1 -9 6 -7 17 2 11 -1 15 -7 11 -10 -5 -16 14 -12 38 0 4 -3 7 -7 7 -5 0 -9 7
-10 15 -1 8 -3 22 -4 30 -1 8 -4 15 -8 15 -4 0 -7 6 -7 13 0 6 -4 26 -8 42
-14 65 -19 213 -10 300 13 110 35 191 50 178 4 -5 5 -2 1 5 -10 17 3 54 16 46
7 -4 8 -2 4 4 -9 14 43 114 55 106 5 -3 6 3 2 12 -5 14 -3 16 11 11 10 -4 15
-3 11 4 -8 12 14 41 26 33 5 -3 6 1 3 9 -6 18 21 41 38 31 7 -4 10 -4 6 0 -8
9 29 52 59 69 90 52 105 58 119 46 12 -10 13 -9 9 3 -6 14 24 30 60 33 6 0 15
3 20 7 6 4 23 5 38 4 16 -2 24 1 20 7 -4 6 0 8 8 5 8 -3 23 -2 34 2 17 6 38 6
55 0z"/>
<path d="M10485 9260 c-3 -6 1 -7 9 -4 18 7 21 14 7 14 -6 0 -13 -4 -16 -10z"/>
<path d="M10559 9253 c-13 -16 -12 -17 4 -4 9 7 17 15 17 17 0 8 -8 3 -21 -13z"/>
<path d="M10055 9180 c-3 -5 -1 -10 4 -10 6 0 11 5 11 10 0 6 -2 10 -4 10 -3
0 -8 -4 -11 -10z"/>
<path d="M11115 8521 c-3 -5 -2 -12 3 -15 5 -3 9 1 9 9 0 17 -3 19 -12 6z"/>
<path d="M6570 11121 c0 -6 4 -13 10 -16 6 -3 7 1 4 9 -7 18 -14 21 -14 7z"/>
<path d="M3473 10842 c3 -15 0 -33 -6 -39 -5 -7 -6 -13 -1 -13 5 0 9 -79 9
-175 0 -96 -3 -175 -7 -175 -4 0 -5 -7 -1 -15 7 -20 10 -225 3 -225 -3 0 -3
-28 0 -62 3 -35 3 -78 0 -97 l-5 -34 -81 0 c-45 0 -87 4 -93 7 -6 4 -11 4 -11
-1 0 -10 -202 -9 -218 1 -7 4 -12 3 -12 -1 0 -5 -34 -7 -75 -6 -41 2 -75 -1
-76 -5 -6 -71 -2 -705 5 -710 6 -3 32 -4 58 -3 34 2 48 -1 48 -11 0 -10 2 -10
9 1 8 13 12 13 27 0 10 -8 15 -9 11 -3 -4 7 11 11 44 13 36 1 48 -2 43 -10 -5
-9 -3 -9 7 -3 21 13 132 14 148 0 12 -9 13 -8 7 2 -6 10 -3 13 10 10 11 -2 19
-8 19 -15 0 -6 3 -15 7 -19 4 -3 6 3 3 15 -4 24 13 28 34 9 11 -10 13 -10 7 0
-4 6 -3 12 1 12 5 0 15 -6 22 -12 8 -7 11 -8 8 -2 -4 7 5 11 22 12 l28 1 2
-87 c1 -48 4 -88 6 -91 2 -2 0 -12 -6 -22 -5 -11 -6 -19 -2 -19 4 0 8 -294 9
-653 1 -551 4 -712 14 -712 3 0 11 -50 13 -82 1 -17 6 -29 11 -26 5 3 7 0 4
-8 -3 -8 1 -20 9 -27 7 -8 11 -18 8 -23 -4 -5 -1 -9 5 -9 6 0 9 -4 5 -9 -3 -5
0 -13 6 -16 5 -4 8 -14 5 -22 -3 -8 -2 -11 3 -8 16 9 24 -15 10 -31 -10 -12
-9 -13 6 -7 14 5 17 3 12 -10 -4 -11 -2 -14 8 -11 7 3 16 -3 19 -13 3 -10 19
-33 35 -51 17 -17 27 -32 23 -32 -3 0 4 -7 16 -16 12 -8 19 -20 16 -26 -4 -7
-2 -8 5 -4 6 4 24 -5 41 -22 16 -16 32 -27 35 -24 3 3 5 0 5 -6 0 -7 7 -12 15
-12 8 0 15 -4 15 -10 0 -5 7 -10 15 -10 8 0 15 -4 15 -8 0 -4 17 -14 38 -21
20 -8 39 -17 42 -20 5 -6 62 -29 90 -36 8 -2 31 -9 50 -15 19 -7 48 -14 63
-16 16 -2 34 -7 40 -11 6 -4 27 -8 47 -10 19 -2 49 -6 65 -9 17 -3 40 -5 53
-5 16 1 21 -3 16 -12 -5 -9 -4 -9 6 0 11 10 17 10 29 0 12 -10 13 -9 6 2 -5 9
-4 12 3 7 6 -4 59 -7 117 -7 80 0 104 -3 98 -12 -5 -9 -3 -9 8 -1 22 17 112
27 103 11 -5 -8 -2 -7 9 2 9 7 17 11 17 8 0 -3 15 -1 34 3 22 5 39 3 45 -3 8
-8 11 -8 11 1 0 7 13 12 30 12 16 0 52 5 80 11 29 6 57 12 63 13 97 19 151 46
154 74 2 15 -1 21 -9 16 -7 -4 -8 -3 -4 4 10 17 13 92 3 92 -4 0 -5 5 -2 11
11 17 11 79 0 79 -7 0 -7 3 0 8 13 9 17 52 5 52 -6 0 -6 9 -2 23 9 24 8 56 -1
81 -3 8 -3 17 2 20 4 3 4 30 1 60 -3 31 -4 56 0 56 7 0 4 106 -4 119 -4 5 -2
12 3 15 8 5 6 64 -3 73 -2 2 -25 -8 -52 -22 -27 -13 -67 -27 -89 -30 -22 -3
-62 -8 -90 -12 -54 -7 -191 -7 -240 0 -72 11 -105 20 -105 29 0 5 -4 7 -8 4
-10 -6 -84 42 -110 71 -17 20 -36 60 -58 118 -16 43 -22 95 -29 239 -4 83 -3
111 7 118 9 5 9 8 2 8 -8 0 -12 22 -13 60 0 45 3 59 12 54 9 -5 9 -4 0 7 -7 7
-13 35 -13 61 0 32 4 48 13 48 8 0 9 3 1 8 -17 11 -18 223 -2 234 8 5 9 8 2 8
-8 0 -12 22 -13 60 0 45 3 59 12 54 9 -5 9 -4 0 7 -7 7 -13 34 -13 59 0 25 6
52 13 59 9 11 9 12 0 7 -9 -5 -12 13 -12 74 0 58 4 78 12 74 8 -5 8 -2 0 7
-17 17 -16 26 2 26 8 0 11 -5 8 -11 -3 -6 0 -5 8 2 15 14 33 17 25 4 -3 -5 1
-9 9 -9 8 0 12 4 9 8 -6 11 78 6 95 -5 9 -6 12 -5 7 2 -8 14 34 12 53 -2 11
-8 13 -8 8 1 -10 15 52 15 72 -1 11 -8 13 -8 8 0 -5 8 7 12 38 11 26 0 42 -5
38 -10 -4 -6 -1 -7 8 -1 21 13 92 14 108 1 11 -9 13 -9 8 0 -5 7 4 11 28 11
24 0 33 -4 28 -11 -4 -7 1 -6 11 2 15 13 19 13 27 0 5 -8 9 -9 9 -3 0 6 23 11
55 12 40 0 53 -3 49 -11 -5 -8 -3 -8 7 1 7 6 24 12 37 12 19 0 23 5 22 28 -1
15 -1 32 0 37 5 24 5 42 -2 68 -3 15 -3 27 1 27 7 0 5 86 -4 108 -2 6 -1 12 3
12 9 0 7 94 -3 109 -3 6 -2 11 2 11 5 0 7 17 6 38 -4 62 -4 105 0 140 2 18 0
35 -5 38 -4 3 -3 14 2 25 8 14 7 19 -2 19 -9 0 -10 2 -2 8 7 4 8 15 3 28 -7
20 -14 22 -86 20 -43 -1 -84 2 -90 7 -7 5 -13 6 -13 1 0 -11 -92 -10 -108 0
-7 4 -12 3 -12 -1 0 -10 -41 -10 -58 1 -7 4 -12 4 -12 -1 0 -9 -321 -8 -345 1
-8 3 -15 2 -15 -3 0 -4 -11 -6 -24 -4 -23 5 -24 8 -25 101 -2 69 2 97 11 103
10 7 10 9 1 9 -10 0 -13 30 -13 115 0 85 3 115 13 115 8 0 9 2 1 8 -17 10 -18
125 -1 116 9 -6 9 -5 0 8 -9 10 -12 55 -11 149 l1 134 -452 2 -451 1 3 -26z"/>
<path d="M4395 10409 c-4 -6 -5 -12 -2 -15 2 -3 7 2 10 11 7 17 1 20 -8 4z"/>
<path d="M11006 10322 c-3 -5 1 -9 9 -9 8 0 12 4 9 9 -3 4 -7 8 -9 8 -2 0 -6
-4 -9 -8z"/>
<path d="M15809 10202 c-20 -21 -85 -84 -145 -140 l-109 -104 28 -23 c15 -13
27 -28 27 -32 0 -4 14 -19 31 -32 17 -14 81 -73 142 -133 61 -59 115 -108 120
-108 5 0 6 -7 3 -16 -3 -8 -2 -12 4 -9 11 7 126 -104 122 -117 -1 -5 2 -7 8
-3 5 3 10 1 10 -5 0 -6 5 -8 10 -5 6 3 10 -2 10 -11 0 -10 2 -15 5 -12 7 7
100 -84 97 -94 -1 -5 4 -7 11 -5 6 1 11 -4 9 -11 -1 -8 1 -11 6 -8 4 2 27 -15
50 -40 24 -24 47 -44 52 -44 5 0 11 -9 15 -20 3 -11 9 -19 13 -17 4 1 29 -19
55 -45 26 -27 52 -48 57 -48 6 0 10 -5 10 -11 0 -10 24 -39 32 -39 13 0 149
-140 144 -148 -3 -5 2 -9 12 -8 9 0 16 -5 14 -12 -1 -8 1 -11 6 -8 4 3 58 -43
119 -102 101 -98 110 -109 98 -126 -8 -10 -20 -16 -28 -13 -11 4 -13 0 -10
-14 3 -11 2 -19 -3 -17 -5 1 -53 -41 -106 -94 -53 -53 -99 -94 -102 -91 -2 2
-7 -5 -11 -17 -5 -15 -13 -20 -26 -17 -11 3 -16 1 -13 -5 8 -13 -135 -150
-148 -141 -6 3 -8 2 -5 -4 4 -6 -48 -61 -114 -124 -66 -63 -148 -142 -182
-176 -34 -35 -68 -63 -76 -63 -8 0 -12 -3 -8 -6 3 -3 -5 -16 -18 -28 -12 -11
-42 -39 -66 -61 -24 -22 -47 -39 -52 -37 -5 1 -6 -1 -4 -5 3 -5 -26 -37 -65
-73 -39 -36 -113 -107 -166 -157 -52 -51 -98 -93 -103 -93 -15 0 -2 -30 24
-58 15 -16 24 -32 20 -37 -5 -4 -2 -5 5 -1 13 8 95 -67 85 -78 -4 -3 -1 -6 5
-6 19 0 62 -42 55 -53 -3 -6 -2 -7 3 -4 6 3 28 -10 49 -30 l39 -36 23 27 c13
15 23 25 23 22 0 -4 23 19 51 49 29 30 56 52 62 48 6 -3 7 -2 4 3 -6 11 171
180 184 176 5 -1 8 2 7 7 -4 12 104 111 114 105 4 -3 5 1 2 9 -6 16 22 31 38
20 7 -4 8 -1 3 7 -9 15 132 153 147 143 6 -3 8 -1 5 4 -9 14 42 65 56 56 5 -3
7 -2 4 4 -8 13 47 66 57 56 4 -5 6 -3 5 2 -5 16 49 68 62 59 8 -4 9 -3 5 4 -4
6 2 20 14 32 11 11 20 18 20 15 0 -3 9 4 20 15 11 11 20 25 20 30 0 6 4 10 9
10 4 0 33 25 64 55 30 30 57 55 59 55 2 0 49 45 106 101 56 55 106 98 111 95
5 -3 8 0 7 7 0 6 2 13 6 15 4 2 52 48 107 103 55 54 105 99 111 99 6 0 8 5 5
10 -6 9 8 14 28 11 5 -1 6 3 3 8 -4 5 4 17 16 25 12 9 19 16 15 16 -4 0 7 13
24 28 l31 28 -42 39 c-23 22 -70 67 -105 101 -35 33 -80 75 -100 93 -21 18
-33 36 -29 43 4 6 3 8 -3 5 -6 -4 -35 16 -64 44 -30 28 -80 75 -111 105 -32
29 -58 58 -58 63 0 6 -5 11 -11 11 -16 0 -39 26 -31 35 4 5 2 5 -5 1 -6 -3
-15 -1 -20 6 -4 7 -27 30 -50 50 -23 20 -39 39 -35 42 3 3 1 6 -5 6 -14 0 -73
58 -73 72 0 6 -3 8 -7 4 -4 -4 -30 16 -57 44 -106 105 -285 276 -305 290 -12
8 -24 22 -27 32 -3 10 -9 17 -13 15 -4 -1 -26 17 -50 41 -23 23 -46 42 -52 42
-6 0 -7 5 -4 10 3 6 -1 10 -10 10 -9 0 -13 5 -10 10 3 6 2 10 -3 10 -5 0 -55
45 -112 100 -58 55 -108 100 -113 100 -4 0 -5 5 -2 10 3 6 1 10 -5 10 -6 0
-28 17 -49 38 -75 76 -71 75 -112 34z"/>
<path d="M1741 10154 c-41 -40 -78 -71 -83 -68 -5 3 -7 1 -6 -4 3 -10 -138
-152 -151 -152 -4 0 -14 -11 -21 -25 -7 -14 -16 -25 -20 -25 -6 0 -61 -52
-263 -246 -53 -52 -102 -94 -108 -94 -5 0 -8 -3 -6 -7 2 -5 -4 -16 -15 -25
-10 -10 -18 -16 -18 -14 0 3 -43 -38 -96 -89 -53 -52 -101 -92 -107 -88 -5 3
-7 2 -4 -4 3 -5 -55 -68 -130 -139 -171 -162 -255 -243 -365 -348 -47 -46 -88
-83 -90 -82 -2 2 -16 -12 -31 -30 l-28 -33 30 -27 c17 -15 28 -31 24 -37 -3
-6 -2 -7 4 -4 5 3 54 -37 108 -89 54 -52 103 -94 108 -94 6 0 8 -3 5 -6 -5 -5
37 -54 47 -54 2 0 40 -36 86 -80 45 -44 86 -80 92 -80 5 0 7 -9 4 -20 -3 -11
-1 -18 3 -15 16 10 40 -7 41 -29 0 -11 3 -15 6 -8 5 14 73 -48 73 -68 0 -6 4
-9 8 -6 5 3 33 -20 62 -50 30 -31 62 -60 72 -65 10 -5 18 -17 18 -25 0 -8 5
-12 10 -9 5 3 10 -1 10 -10 0 -9 4 -14 8 -11 5 3 19 -6 30 -19 12 -14 28 -25
34 -25 9 0 8 -3 -2 -10 -12 -7 -12 -10 -1 -10 16 0 72 -46 65 -53 -3 -3 4 -8
16 -12 13 -4 19 -12 16 -21 -3 -8 -2 -12 4 -9 12 8 101 -76 93 -88 -3 -6 -2
-7 3 -4 6 3 24 -9 42 -28 20 -20 29 -36 23 -40 -6 -3 -11 -12 -11 -18 0 -7 5
-4 11 5 5 9 16 15 24 12 8 -4 12 -10 9 -15 -3 -5 0 -9 7 -9 6 0 38 -27 71 -60
34 -33 65 -60 70 -60 5 0 6 -4 3 -10 -3 -5 1 -10 9 -10 10 0 16 -9 17 -22 0
-13 3 -18 5 -11 3 6 42 -25 90 -72 47 -47 99 -96 115 -110 18 -14 27 -30 23
-36 -4 -7 -3 -9 4 -5 6 3 18 -1 27 -10 15 -15 17 -15 33 0 9 9 54 52 99 96 45
44 87 80 94 80 7 0 10 3 7 6 -7 6 34 52 42 48 3 -1 13 11 22 27 11 19 13 28 5
26 -7 -1 -11 4 -9 11 1 8 -2 11 -7 8 -5 -3 -48 32 -95 78 -47 46 -86 83 -86
81 0 -2 -16 13 -35 32 -19 19 -35 39 -35 44 0 5 -4 9 -9 9 -9 0 -102 85 -268
248 -41 39 -79 72 -84 72 -6 0 -8 4 -5 8 3 5 -7 17 -21 28 -25 18 -108 96
-303 284 -48 47 -102 98 -119 113 -18 15 -29 33 -25 39 4 6 3 8 -4 4 -6 -3
-40 22 -76 57 -55 52 -64 65 -54 77 11 12 10 12 -3 2 -13 -9 -22 -5 -51 27
l-35 39 100 96 c55 53 106 95 113 92 7 -3 11 0 8 8 -6 14 104 118 117 110 5
-3 6 3 2 12 -4 12 -3 15 5 10 7 -4 12 -2 12 6 0 7 16 24 35 38 19 14 35 30 35
37 0 6 9 14 19 18 11 3 22 13 25 21 3 8 11 12 16 9 6 -4 9 -2 8 3 -3 11 101
112 115 112 5 0 6 4 2 9 -3 5 4 12 15 16 11 3 20 14 20 22 0 9 3 14 6 11 3 -4
30 18 59 47 29 30 56 51 59 48 3 -4 6 1 6 10 0 9 4 17 8 17 4 0 53 44 108 98
55 54 106 96 114 94 7 -3 10 0 6 6 -3 6 4 20 16 31 17 16 24 18 31 9 6 -10 7
-9 4 3 -3 10 16 36 55 74 47 45 63 54 70 44 7 -11 8 -9 4 4 -4 14 7 30 41 60
25 23 50 41 55 39 5 -1 7 2 3 8 -3 5 0 13 9 16 36 14 24 37 -67 126 -123 120
-189 178 -202 177 -5 -1 -43 -34 -84 -75z"/>
<path d="M6570 10161 c0 -6 4 -13 10 -16 6 -3 7 1 4 9 -7 18 -14 21 -14 7z"/>
<path d="M4395 10081 c-3 -5 -2 -12 3 -15 5 -3 9 1 9 9 0 17 -3 19 -12 6z"/>
<path d="M5555 10080 c-3 -5 -1 -10 4 -10 6 0 11 5 11 10 0 6 -2 10 -4 10 -3
0 -8 -4 -11 -10z"/>
<path d="M14361 10084 c-1 -5 -20 -12 -43 -13 -70 -5 -83 -7 -96 -15 -6 -4
-16 -5 -21 -1 -5 3 -12 1 -15 -4 -6 -8 -73 -26 -88 -23 -5 1 -8 -2 -8 -8 0 -5
-6 -10 -14 -10 -13 0 -75 -29 -86 -40 -24 -24 -103 -69 -112 -64 -6 4 -8 3 -5
-3 6 -9 -56 -83 -70 -83 -5 -1 -35 -39 -68 -85 -33 -47 -68 -94 -77 -106 -10
-12 -18 -28 -18 -36 0 -7 -7 -16 -15 -19 -8 -4 -12 -10 -9 -15 3 -5 1 -9 -4
-9 -5 0 -12 11 -14 25 -3 13 -2 22 3 19 7 -4 1 66 -7 75 -2 2 1 12 7 22 7 14
6 19 -3 19 -8 0 -9 3 -3 8 12 8 13 51 2 70 -5 6 -4 12 1 12 5 0 7 15 5 33 -1
17 -4 64 -5 102 l-3 70 -50 0 c-27 0 -53 5 -57 10 -5 7 -8 7 -8 0 0 -6 -112
-10 -315 -10 -203 0 -315 4 -315 10 0 7 -3 7 -8 0 -4 -5 -36 -10 -72 -10 l-65
0 -1 -37 c0 -21 -3 -40 -6 -44 -4 -3 -2 -19 2 -35 5 -16 5 -29 0 -29 -5 0 -7
-10 -4 -22 7 -34 8 -128 1 -135 -4 -3 -2 -13 3 -23 5 -10 7 -19 5 -21 -2 -3
-4 -45 -4 -94 -1 -95 -1 -114 -1 -142 -1 -10 0 -60 0 -110 1 -51 -1 -97 -4
-102 -4 -5 -2 -12 4 -16 6 -4 8 -10 6 -14 -3 -4 -5 -48 -5 -97 -1 -94 -1 -113
-1 -141 -1 -10 0 -60 0 -110 1 -51 -1 -97 -4 -102 -4 -5 -2 -12 4 -16 6 -4 8
-10 6 -14 -3 -4 -5 -48 -5 -97 -1 -94 -1 -113 -1 -141 -1 -10 0 -60 0 -110 1
-51 -1 -97 -4 -102 -4 -5 -2 -12 4 -16 6 -4 8 -10 6 -14 -3 -4 -5 -48 -5 -97
-1 -94 -1 -113 -1 -141 -1 -10 0 -60 0 -110 1 -51 -1 -97 -4 -102 -4 -5 -3
-12 1 -14 5 -3 6 -49 3 -102 -3 -53 -2 -102 2 -108 4 -6 3 -18 -1 -26 -5 -9
-5 -25 -1 -36 4 -11 4 -30 -1 -42 -5 -12 -4 -25 1 -28 5 -3 5 -18 1 -33 -5
-15 -5 -36 -1 -47 4 -11 4 -27 -1 -36 -5 -9 -6 -19 -2 -22 3 -4 5 -45 4 -91
-2 -76 0 -85 16 -85 100 -2 166 -1 171 3 3 3 11 1 19 -5 10 -9 13 -8 13 0 0 7
5 9 12 5 6 -4 52 -7 102 -6 50 1 123 1 161 1 39 0 77 0 85 0 8 1 35 0 60 0 55
-1 55 -1 108 3 23 2 42 0 42 -4 0 -4 7 -5 15 -2 8 3 31 7 52 7 31 2 38 6 44
28 3 15 3 33 -2 40 -4 7 -5 18 -1 23 10 17 10 46 -1 46 -5 0 -2 12 8 26 9 15
13 24 7 20 -5 -3 -12 1 -16 9 -3 8 -2 15 2 15 4 0 7 19 5 43 -1 23 -2 42 -3
42 -1 0 -2 21 -3 48 -1 26 0 47 3 47 3 0 5 14 5 30 0 17 -2 30 -5 30 -3 0 -4
30 -2 67 2 38 3 73 3 78 0 6 -1 33 -1 60 -1 28 -1 52 0 55 5 16 6 50 1 50 -3
0 -6 25 -6 55 0 30 2 55 5 55 3 0 5 14 5 30 0 17 -2 30 -5 30 -3 0 -5 23 -5
50 0 28 2 50 5 50 3 0 5 14 5 30 0 17 -3 30 -7 30 -4 0 -3 13 2 28 4 17 3 36
-2 47 -8 13 -7 16 2 10 9 -6 10 -1 4 16 -8 25 -8 27 -1 72 3 15 0 27 -7 27 -7
0 -7 3 -1 8 6 4 11 39 11 77 2 105 6 148 16 168 6 11 5 17 -2 17 -6 0 -8 5 -4
11 4 7 9 26 11 42 1 17 9 34 16 39 9 6 9 8 0 8 -9 0 -10 7 -4 23 5 12 9 25 9
30 1 19 15 73 23 87 5 8 15 32 23 53 8 20 20 37 26 37 6 0 9 4 5 9 -3 5 1 15
8 23 7 7 23 28 36 46 12 18 27 29 33 26 6 -4 8 -3 5 3 -4 6 5 21 18 33 14 13
25 20 25 15 0 -4 8 2 19 13 10 12 23 22 28 22 6 0 16 7 23 15 7 9 19 14 26 11
7 -3 15 2 18 11 4 8 13 13 21 9 8 -3 15 -1 15 4 0 6 3 9 8 8 4 0 14 1 22 5 43
16 78 24 103 23 15 -1 27 2 27 6 0 4 12 6 28 4 15 -1 37 1 50 6 15 5 22 4 22
-5 0 -8 3 -8 8 -2 8 13 22 13 41 1 10 -6 12 -5 7 2 -10 16 7 15 23 0 11 -10
13 -10 7 0 -4 7 -1 12 8 12 9 0 16 -6 16 -12 0 -9 3 -10 8 -2 9 14 45 14 54 1
4 -7 11 -7 20 1 11 9 18 9 28 -1 10 -10 11 -9 5 2 -6 10 -4 12 6 6 7 -5 25
-10 39 -11 73 -8 116 -16 154 -29 64 -23 65 -22 62 43 -1 31 2 63 7 70 5 6 6
12 1 12 -10 0 -10 559 -1 584 4 9 3 16 -2 16 -4 0 -6 18 -4 40 3 31 0 40 -11
41 -9 1 -19 2 -23 4 -33 8 -87 16 -134 19 -31 2 -62 6 -68 10 -6 4 -11 3 -11
-1 0 -5 -9 -9 -20 -9 -11 0 -20 4 -20 9 0 4 -5 5 -12 1 -17 -11 -77 -10 -82 1
-3 6 -5 6 -5 -1z"/>
<path d="M16189 9963 c-13 -16 -12 -17 4 -4 9 7 17 15 17 17 0 8 -8 3 -21 -13z"/>
<path d="M11046 9818 c3 -5 10 -6 15 -3 13 9 11 12 -6 12 -8 0 -12 -4 -9 -9z"/>
<path d="M5233 9795 c0 -8 4 -12 9 -9 5 3 6 10 3 15 -9 13 -12 11 -12 -6z"/>
<path d="M13654 9696 c1 -8 5 -18 8 -22 4 -3 5 1 4 10 -1 8 -5 18 -8 22 -4 3
-5 -1 -4 -10z"/>
<path d="M15754 9689 c-3 -6 -2 -15 3 -20 5 -5 9 -1 9 11 0 23 -2 24 -12 9z"/>
<path d="M13610 9660 c0 -5 5 -10 11 -10 5 0 7 5 4 10 -3 6 -8 10 -11 10 -2 0
-4 -4 -4 -10z"/>
<path d="M1626 9442 c-3 -5 1 -9 9 -9 8 0 12 4 9 9 -3 4 -7 8 -9 8 -2 0 -6 -4
-9 -8z"/>
<path d="M7637 9414 c-1 -1 -27 -4 -57 -5 -30 -2 -66 -9 -79 -16 -14 -7 -28
-10 -33 -7 -4 3 -8 1 -8 -4 0 -10 -47 -27 -63 -23 -5 1 -6 -3 -3 -8 4 -5 -4
-13 -16 -17 -12 -3 -27 -12 -33 -18 -7 -6 -31 -28 -54 -49 -35 -31 -111 -135
-111 -151 0 -3 -5 -17 -12 -33 -16 -41 -19 -53 -21 -105 -1 -27 -5 -48 -9 -48
-5 0 -5 -8 0 -17 5 -10 9 -33 11 -52 1 -19 6 -40 12 -47 6 -7 11 -28 12 -47 1
-19 6 -33 10 -30 5 3 11 -4 14 -16 3 -12 10 -21 15 -21 6 0 8 -9 5 -19 -3 -13
0 -18 8 -15 6 3 20 -8 30 -23 10 -15 30 -37 43 -47 14 -11 34 -29 46 -41 12
-12 27 -20 34 -17 7 2 12 -1 12 -6 0 -6 10 -14 22 -18 12 -3 37 -13 57 -22 44
-19 35 -17 101 -26 92 -13 170 -10 198 7 7 5 12 3 12 -5 0 -11 2 -11 9 0 4 7
12 12 17 10 5 -1 19 3 30 10 12 6 24 8 28 5 3 -3 6 -1 6 6 0 8 8 11 20 8 11
-3 18 -1 15 3 -3 5 10 16 30 26 19 9 35 21 35 26 0 5 10 7 23 4 12 -3 16 -3 9
0 -14 6 85 121 100 116 5 -1 7 2 3 8 -4 6 2 25 13 43 11 17 23 46 27 62 5 17
10 37 12 45 10 36 11 145 2 162 -7 12 -6 18 1 18 6 0 4 12 -5 30 -9 17 -13 30
-10 30 6 0 -32 75 -50 98 -61 76 -98 114 -142 143 -29 19 -53 38 -53 42 0 5
-4 6 -8 3 -5 -3 -19 1 -33 8 -34 17 -211 50 -222 40z"/>
<path d="M1540 9366 c0 -2 8 -10 18 -17 15 -13 16 -12 3 4 -13 16 -21 21 -21
13z"/>
<path d="M8955 9360 c-3 -5 -1 -10 4 -10 6 0 11 5 11 10 0 6 -2 10 -4 10 -3 0
-8 -4 -11 -10z"/>
<path d="M1495 9341 c-3 -5 -2 -12 3 -15 5 -3 9 1 9 9 0 17 -3 19 -12 6z"/>
<path d="M5555 9280 c-3 -5 -1 -10 4 -10 6 0 11 5 11 10 0 6 -2 10 -4 10 -3 0
-8 -4 -11 -10z"/>
<path d="M3235 9260 c-3 -5 -1 -10 4 -10 6 0 11 5 11 10 0 6 -2 10 -4 10 -3 0
-8 -4 -11 -10z"/>
<path d="M4655 9261 c-3 -5 -2 -12 3 -15 5 -3 9 1 9 9 0 17 -3 19 -12 6z"/>
<path d="M1433 9235 c0 -8 4 -12 9 -9 5 3 6 10 3 15 -9 13 -12 11 -12 -6z"/>
<path d="M4430 9246 c0 -2 7 -7 16 -10 8 -3 12 -2 9 4 -6 10 -25 14 -25 6z"/>
<path d="M675 9200 c-3 -5 -1 -10 4 -10 6 0 11 5 11 10 0 6 -2 10 -4 10 -3 0
-8 -4 -11 -10z"/>
<path d="M6575 9201 c-3 -5 -2 -12 3 -15 5 -3 9 1 9 9 0 17 -3 19 -12 6z"/>
<path d="M14550 9200 c0 -5 5 -10 11 -10 5 0 7 5 4 10 -3 6 -8 10 -11 10 -2 0
-4 -4 -4 -10z"/>
<path d="M4385 9140 c-3 -6 1 -7 9 -4 18 7 21 14 7 14 -6 0 -13 -4 -16 -10z"/>
<path d="M3420 9026 c0 -2 8 -10 18 -17 15 -13 16 -12 3 4 -13 16 -21 21 -21
13z"/>
<path d="M13753 8995 c0 -8 4 -12 9 -9 5 3 6 10 3 15 -9 13 -12 11 -12 -6z"/>
<path d="M7099 8873 c-13 -16 -12 -17 4 -4 16 13 21 21 13 21 -2 0 -10 -8 -17
-17z"/>
<path d="M4395 8809 c-4 -6 -5 -12 -2 -15 2 -3 7 2 10 11 7 17 1 20 -8 4z"/>
<path d="M3390 8761 c0 -6 4 -13 10 -16 6 -3 7 1 4 9 -7 18 -14 21 -14 7z"/>
<path d="M16806 8698 c3 -5 10 -6 15 -3 13 9 11 12 -6 12 -8 0 -12 -4 -9 -9z"/>
<path d="M6555 8620 c-3 -5 -1 -10 4 -10 6 0 11 5 11 10 0 6 -2 10 -4 10 -3 0
-8 -4 -11 -10z"/>
<path d="M16755 8600 c3 -5 8 -10 11 -10 2 0 4 5 4 10 0 6 -5 10 -11 10 -5 0
-7 -4 -4 -10z"/>
<path d="M7290 8496 c0 -2 8 -10 18 -17 15 -13 16 -12 3 4 -13 16 -21 21 -21
13z"/>
<path d="M3390 8441 c0 -6 4 -13 10 -16 6 -3 7 1 4 9 -7 18 -14 21 -14 7z"/>
<path d="M4390 8319 c0 -5 5 -7 10 -4 6 3 10 8 10 11 0 2 -4 4 -10 4 -5 0 -10
-5 -10 -11z"/>
<path d="M6555 8300 c-3 -5 -1 -10 4 -10 6 0 11 5 11 10 0 6 -2 10 -4 10 -3 0
-8 -4 -11 -10z"/>
<path d="M17053 8255 c0 -8 4 -12 9 -9 5 3 6 10 3 15 -9 13 -12 11 -12 -6z"/>
<path d="M5555 8160 c-3 -5 -1 -10 4 -10 6 0 11 5 11 10 0 6 -2 10 -4 10 -3 0
-8 -4 -11 -10z"/>
<path d="M7597 8034 c-2 -2 -20 -4 -41 -6 -20 -1 -39 -5 -42 -9 -2 -4 -13 -6
-24 -4 -11 2 -20 0 -20 -4 0 -5 -12 -12 -27 -16 -16 -3 -42 -17 -60 -31 -17
-13 -35 -24 -38 -24 -12 0 -124 -123 -131 -142 -3 -10 -10 -16 -15 -12 -5 3
-9 2 -8 -3 4 -15 -13 -63 -20 -59 -4 3 -7 -3 -8 -12 -5 -56 -17 -101 -26 -95
-6 4 -7 1 -2 -7 5 -7 9 -41 11 -74 1 -34 5 -74 9 -91 4 -16 7 -36 7 -42 1 -7
6 -13 11 -13 5 0 7 -7 3 -15 -3 -8 -2 -15 2 -15 4 0 16 -14 26 -30 9 -17 29
-42 42 -55 14 -14 22 -30 18 -37 -4 -6 -3 -8 4 -5 11 7 72 -23 72 -35 0 -5 7
-8 15 -8 8 0 15 -5 15 -12 0 -6 3 -8 7 -5 3 4 12 2 20 -4 7 -6 13 -9 13 -6 0
3 12 0 27 -8 15 -8 30 -12 35 -9 4 3 14 2 21 -3 12 -8 36 -10 165 -14 39 -1
72 -6 72 -11 0 -5 3 -7 8 -5 4 3 17 1 30 -4 19 -7 22 -16 22 -62 0 -29 -6 -59
-12 -66 -8 -8 -8 -11 -2 -8 8 5 8 -2 0 -26 -24 -65 -61 -127 -72 -123 -7 3
-10 -2 -8 -12 3 -10 -10 -33 -28 -54 -18 -20 -46 -53 -62 -73 -17 -19 -35 -34
-42 -31 -6 2 -11 -3 -10 -12 0 -10 -6 -16 -16 -16 -10 1 -14 -4 -11 -12 3 -8
-3 -17 -13 -21 -11 -3 -28 -16 -39 -27 -23 -24 -73 -58 -79 -54 -3 2 -12 -6
-20 -17 -9 -11 -16 -16 -16 -12 0 4 -10 -1 -22 -12 -11 -11 -25 -18 -30 -15
-4 3 -8 1 -8 -4 0 -14 -159 -84 -172 -76 -6 4 -8 3 -5 -3 9 -14 -34 -25 -48
-13 -13 11 -14 6 -17 -128 -2 -63 1 -102 7 -102 8 0 65 13 110 24 19 5 50 17
68 27 12 6 17 5 17 -3 0 -8 5 -5 11 5 5 9 16 17 22 17 7 0 57 22 112 49 54 27
106 47 114 44 13 -4 13 -3 3 5 -10 7 -5 14 23 31 20 11 39 21 42 21 4 0 13 7
22 15 40 39 94 74 105 68 6 -3 8 -3 4 2 -8 8 36 53 86 89 14 10 25 21 23 22
-2 2 22 31 52 63 69 73 82 90 133 168 22 35 44 60 49 57 5 -3 6 1 3 9 -3 8 1
21 9 28 7 8 14 16 14 19 0 3 9 23 20 45 11 22 28 61 38 87 10 26 21 46 24 43
4 -2 7 8 8 23 0 15 3 38 7 52 3 13 8 42 12 65 3 22 10 45 15 52 7 7 6 14 -1
18 -6 3 -8 11 -5 16 11 16 11 89 1 89 -6 0 -5 5 1 11 6 6 8 22 4 38 -4 14 -7
42 -6 61 0 19 -4 38 -8 41 -4 3 -9 26 -10 51 -1 25 -4 44 -6 42 -2 -2 -18 29
-35 69 -59 136 -147 234 -258 287 -32 16 -58 27 -58 24 0 -2 -12 1 -27 7 -16
6 -46 13 -68 16 -56 6 -135 10 -138 7z"/>
<path d="M790 7986 c0 -2 7 -7 16 -10 8 -3 12 -2 9 4 -6 10 -25 14 -25 6z"/>
<path d="M6555 7980 c-3 -5 -1 -10 4 -10 6 0 11 5 11 10 0 6 -2 10 -4 10 -3 0
-8 -4 -11 -10z"/>
<path d="M16050 7926 c0 -2 7 -7 16 -10 8 -3 12 -2 9 4 -6 10 -25 14 -25 6z"/>
<path d="M5560 7760 c-9 -6 -10 -10 -3 -10 6 0 15 5 18 10 8 12 4 12 -15 0z"/>
<path d="M6555 7660 c-3 -5 -1 -10 4 -10 6 0 11 5 11 10 0 6 -2 10 -4 10 -3 0
-8 -4 -11 -10z"/>
<path d="M12636 7438 c3 -5 10 -6 15 -3 13 9 11 12 -6 12 -8 0 -12 -4 -9 -9z"/>
<path d="M16253 7435 c0 -8 4 -12 9 -9 5 3 6 10 3 15 -9 13 -12 11 -12 -6z"/>
<path d="M12666 7402 c-3 -5 1 -9 9 -9 8 0 12 4 9 9 -3 4 -7 8 -9 8 -2 0 -6
-4 -9 -8z"/>
<path d="M16076 7278 c3 -5 10 -6 15 -3 13 9 11 12 -6 12 -8 0 -12 -4 -9 -9z"/>
<path d="M9585 7120 c-3 -6 1 -7 9 -4 18 7 21 14 7 14 -6 0 -13 -4 -16 -10z"/>
<path d="M6346 7078 c3 -5 10 -6 15 -3 13 9 11 12 -6 12 -8 0 -12 -4 -9 -9z"/>
<path d="M11646 7082 c-3 -5 1 -9 9 -9 8 0 12 4 9 9 -3 4 -7 8 -9 8 -2 0 -6
-4 -9 -8z"/>
<path d="M13326 7082 c-3 -5 1 -9 9 -9 8 0 12 4 9 9 -3 4 -7 8 -9 8 -2 0 -6
-4 -9 -8z"/>
<path d="M11627 7039 c7 -7 15 -10 18 -7 3 3 -2 9 -12 12 -14 6 -15 5 -6 -5z"/>
<path d="M12866 7042 c-3 -5 1 -9 9 -9 8 0 12 4 9 9 -3 4 -7 8 -9 8 -2 0 -6
-4 -9 -8z"/>
<path d="M13076 7038 c3 -5 10 -6 15 -3 13 9 11 12 -6 12 -8 0 -12 -4 -9 -9z"/>
<path d="M4275 7020 c-3 -5 -1 -10 4 -10 6 0 11 5 11 10 0 6 -2 10 -4 10 -3 0
-8 -4 -11 -10z"/>
<path d="M8159 6993 c-13 -16 -12 -17 4 -4 9 7 17 15 17 17 0 8 -8 3 -21 -13z"/>
<path d="M10205 7000 c-3 -6 1 -7 9 -4 18 7 21 14 7 14 -6 0 -13 -4 -16 -10z"/>
<path d="M10250 7006 c0 -2 7 -7 16 -10 8 -3 12 -2 9 4 -6 10 -25 14 -25 6z"/>
<path d="M12830 7001 c0 -6 4 -13 10 -16 6 -3 7 1 4 9 -7 18 -14 21 -14 7z"/>
<path d="M4426 6958 c3 -5 10 -6 15 -3 13 9 11 12 -6 12 -8 0 -12 -4 -9 -9z"/>
<path d="M4750 6919 c0 -5 5 -7 10 -4 6 3 10 8 10 11 0 2 -4 4 -10 4 -5 0 -10
-5 -10 -11z"/>
<path d="M7309 6523 c-13 -16 -12 -17 4 -4 9 7 17 15 17 17 0 8 -8 3 -21 -13z"/>
</g>
</svg>
