<?xml version="1.0" encoding="UTF-8"?>
<svg width="442px" height="147px" viewBox="0 0 442 147" version="1.1" xmlns="http://www.w3.org/2000/svg" xmlns:xlink="http://www.w3.org/1999/xlink">
    <!-- Generator: Sketch 46.2 (44496) - http://www.bohemiancoding.com/sketch -->
    <title>logo-light</title>
    <desc>Created with Sketch.</desc>
    <defs>
        <filter x="-1.9%" y="-5.1%" width="103.7%" height="112.0%" filterUnits="objectBoundingBox" id="filter-1">
            <feOffset dx="0" dy="1" in="SourceAlpha" result="shadowOffsetOuter1"></feOffset>
            <feGaussianBlur stdDeviation="2.5" in="shadowOffsetOuter1" result="shadowBlurOuter1"></feGaussianBlur>
            <feColorMatrix values="0 0 0 0 0   0 0 0 0 0   0 0 0 0 0  0 0 0 0.3 0" type="matrix" in="shadowBlurOuter1" result="shadowMatrixOuter1"></feColorMatrix>
            <feMerge>
                <feMergeNode in="shadowMatrixOuter1"></feMergeNode>
                <feMergeNode in="SourceGraphic"></feMergeNode>
            </feMerge>
        </filter>
    </defs>
    <g id="Logo-Presentation" stroke="none" stroke-width="1" fill="none" fill-rule="evenodd">
        <g id="A4" transform="translate(-77.000000, -349.000000)" fill="#FFFFFF">
            <g id="logo-light" filter="url(#filter-1)" transform="translate(82.000000, 353.000000)">
                <g id="؛" transform="translate(171.281250, 54.843750)">
                    <path d="M2.33006727,12.2514344 C2.33006727,9.00674607 3.58908246,6.2096429 6.10715061,3.86004098 C8.62521875,1.51043907 11.622874,0.335655738 15.1002062,0.335655738 C18.5775384,0.335655738 21.5751936,1.51043907 24.0932617,3.86004098 C26.6113299,6.2096429 27.8703451,9.00674607 27.8703451,12.2514344 C27.8703451,15.4961228 26.6113299,18.293226 24.0932617,20.6428279 C21.5751936,22.9924298 18.5775384,24.1672131 15.1002062,24.1672131 C11.622874,24.1672131 8.62521875,22.9924298 6.10715061,20.6428279 C3.58908246,18.293226 2.33006727,15.4961228 2.33006727,12.2514344 Z" id="Path"></path>
                    <path d="M0.171733941,77.1104508 C1.97035405,76.6629076 4.00875959,75.7958056 6.28701172,74.5091189 C8.56526385,73.2224321 10.6336459,71.7119964 12.4922201,69.9777664 C14.3507942,68.2435364 15.8795983,66.3694773 17.0786784,64.3555328 C18.2777585,62.3415883 18.7573833,60.327674 18.5175673,58.3137295 C18.2777513,57.8661863 17.6182671,57.586476 16.5390951,57.4745902 C15.459923,57.3627044 14.4407202,57.3067623 13.4814562,57.3067623 C10.483756,57.3067623 7.87579596,56.3837182 5.65749783,54.5376025 C3.4391997,52.6914867 2.33006727,50.0901807 2.33006727,46.7336066 C2.33006727,43.4889182 3.55910591,40.691815 6.01722005,38.3422131 C8.47533419,35.9926112 11.2631535,34.8178279 14.3807617,34.8178279 C19.177082,34.8178279 22.8042448,36.4401477 25.2623589,39.6848361 C27.7204731,42.9295244 28.9495117,46.9014109 28.9495117,51.6006148 C28.9495117,55.1809605 28.1401448,58.6213974 26.5213867,61.9220287 C24.9026286,65.2226599 22.7742934,68.2715024 20.1363173,71.0686475 C17.4983411,73.8657927 14.4407328,76.2713014 10.9634006,78.2852459 C7.48606841,80.2991904 3.88888216,81.697742 0.171733941,82.4809426 L0.171733941,77.1104508 Z" id="Path"></path>
                </g>
                <g id="&lt;&gt;" transform="translate(0.000000, 34.593750)">
                    <polygon id="Path" points="432 38.8125 391.226715 77.625 383.90625 70.6565762 417.359071 38.8125 383.90625 6.9684238 391.226715 0"></polygon>
                    <polygon id="Path-Copy" transform="translate(24.046875, 38.812500) scale(-1, 1) translate(-24.046875, -38.812500) " points="48.09375 38.8125 7.3204646 77.625 0 70.6565762 33.4528208 38.8125 0 6.9684238 7.3204646 0"></polygon>
                </g>
                <path d="M123.981868,58.2714844 L104.258041,58.2714844 L104.258041,82.4765625 C104.258041,84.46876 104.357655,86.2866129 104.556887,87.9301758 C104.756119,89.5737387 105.204383,90.9931581 105.901693,92.1884766 C106.599004,93.383795 107.669857,94.3051725 109.114286,94.9526367 C110.558715,95.6001009 112.47629,95.9238281 114.867069,95.9238281 C116.062459,95.9238281 117.631384,95.7993177 119.573892,95.550293 C121.516399,95.3012683 122.98571,94.7285201 123.981868,93.8320312 L123.981868,112.508789 C121.491473,113.405278 118.901502,114.002928 116.211876,114.301758 C113.522249,114.600587 110.882471,114.75 108.29246,114.75 C104.50706,114.75 101.02056,114.351566 97.8328551,113.554687 C94.6451499,112.757809 91.8559498,111.487802 89.4651709,109.744629 C87.0743921,108.001456 85.2066241,105.735366 83.861811,102.946289 C82.5169979,100.157213 81.8446014,96.7705277 81.8446014,92.7861328 L81.8446014,58.2714844 L67.5,58.2714844 L67.5,40.3417969 L81.8446014,40.3417969 L81.8446014,18.8261719 L104.258041,18.8261719 L104.258041,40.3417969 L123.981868,40.3417969 L123.981868,58.2714844 Z M135.636857,0 L158.050296,0 L158.050296,112.957031 L135.636857,112.957031 L135.636857,0 Z M294.622856,112.957031 L274.002491,112.957031 L274.002491,103.394531 L273.703645,103.394531 C272.807103,104.68946 271.636635,106.009271 270.192206,107.354004 C268.747778,108.698737 267.054335,109.91894 265.111827,111.014648 C263.169319,112.110357 261.027612,113.006832 258.686641,113.704102 C256.34567,114.401371 253.930023,114.75 251.439629,114.75 C246.060376,114.75 241.179276,113.828622 236.796181,111.98584 C232.413087,110.143057 228.652647,107.553239 225.51475,104.216309 C222.376853,100.879378 219.961206,96.9199448 218.267738,92.3378906 C216.574269,87.7558365 215.727548,82.7256133 215.727548,77.2470703 C215.727548,72.1669668 216.499559,67.3110583 218.043603,62.6791992 C219.587648,58.0473401 221.779162,53.9384945 224.618212,50.3525391 C227.457262,46.7665836 230.918859,43.9028427 235.003106,41.7612305 C239.087353,39.6196182 243.719418,38.5488281 248.899439,38.5488281 C253.581381,38.5488281 257.939506,39.2709889 261.973945,40.715332 C266.008385,42.1596752 269.32056,44.6249826 271.91057,48.1113281 L272.209416,48.1113281 L272.209416,0 L294.622856,0 L294.622856,112.957031 Z M274.002491,76.6494141 C274.002491,71.170871 272.433566,66.7382982 269.295669,63.3515625 C266.157772,59.9648268 261.749839,58.2714844 256.071739,58.2714844 C250.39364,58.2714844 245.985707,59.9648268 242.84781,63.3515625 C239.709913,66.7382982 238.140988,71.170871 238.140988,76.6494141 C238.140988,82.1279571 239.709913,86.5605299 242.84781,89.9472656 C245.985707,93.3340013 250.39364,95.0273438 256.071739,95.0273438 C261.749839,95.0273438 266.157772,93.3340013 269.295669,89.9472656 C272.433566,86.5605299 274.002491,82.1279571 274.002491,76.6494141 Z M312.553607,40.3417969 L334.967047,40.3417969 L334.967047,51.9960938 L335.265893,51.9960938 C337.656672,47.5136495 340.495679,44.1518667 343.783,41.9106445 C347.070321,39.6694224 351.204314,38.5488281 356.185103,38.5488281 C357.480109,38.5488281 358.775094,38.5986323 360.0701,38.6982422 C361.365105,38.7978521 362.560476,38.9970688 363.65625,39.2958984 L363.65625,59.765625 C362.062397,59.2675756 360.493472,58.8940442 358.949428,58.6450195 C357.405383,58.3959948 355.786651,58.2714844 354.093182,58.2714844 C349.809704,58.2714844 346.422818,58.8691346 343.932423,60.0644531 C341.442028,61.2597716 339.524453,62.9282119 338.17964,65.0698242 C336.834827,67.2114365 335.963202,69.7763522 335.564739,72.7646484 C335.166276,75.7529446 334.967047,79.0400211 334.967047,82.6259766 L334.967047,112.957031 L312.553607,112.957031 L312.553607,40.3417969 Z" id="tl-dr"></path>
            </g>
        </g>
    </g>
</svg>