<?xml version="1.0" encoding="UTF-8"?>
<svg width="601px" height="346px" viewBox="0 0 601 346" version="1.1" xmlns="http://www.w3.org/2000/svg" xmlns:xlink="http://www.w3.org/1999/xlink">
    <!-- Generator: Sketch 46.2 (44496) - http://www.bohemiancoding.com/sketch -->
    <title>grid-vs-flexbox</title>
    <desc>Created with Sketch.</desc>
    <defs></defs>
    <g id="Page-1" stroke="none" stroke-width="1" fill="none" fill-rule="evenodd">
        <g id="grid-vs-flexbox" transform="translate(1.000000, 0.000000)">
            <rect id="Rectangle-path" stroke="#000000" stroke-width="0.25" fill="#DD0C29" fill-rule="nonzero" x="0" y="44.4444444" width="67.4603175" height="211.904762"></rect>
            <rect id="Rectangle-path" stroke="#000000" stroke-width="0.25" fill="#DD0C29" fill-rule="nonzero" x="77.7777778" y="44.4444444" width="67.4603175" height="211.904762"></rect>
            <rect id="Rectangle-path" stroke="#000000" stroke-width="0.25" fill="#DD0C29" fill-rule="nonzero" x="156.349206" y="44.4444444" width="67.4603175" height="211.904762"></rect>
            <path d="M19.047619,12.6984127 L205.555556,12.6984127" id="Shape" fill="#DD0C29" fill-rule="nonzero"></path>
            <path d="M30.1587302,12.6984127 L183.333333,12.6984127" id="Shape" stroke="#DD0C29" stroke-width="5"></path>
            <circle id="Oval" fill="#DD0C29" fill-rule="nonzero" cx="30.952381" cy="12.6984127" r="11.9047619"></circle>
            <polygon id="Shape" fill="#DD0C29" fill-rule="nonzero" points="204.761905 12.6952889 173.809524 25.3968254 181.150993 12.6952889 173.809524 0"></polygon>
            <polygon id="Shape" fill="#000000" fill-rule="nonzero" points="57.9365079 309.363008 60.7205845 309.363008 60.7205845 291.449713 57.9365079 291.449713 57.9365079 289.68254 72.2222222 289.68254 72.2222222 294.240322 70.3325775 294.240322 70.3325775 291.557778 62.8369866 291.557778 62.8369866 299.643552 70.6097254 299.643552 70.6097254 301.474293 62.8306878 301.474293 62.8306878 309.343937 65.7911313 309.343937 65.7911313 311.111111 57.9365079 311.111111"></polygon>
            <path d="M75.6406579,291.383923 L73.015873,291.383923 L73.015873,289.68254 L77.650739,289.68254 L77.650739,307.050561 C77.650739,308.31553 77.976532,309.327505 79.3350272,309.327505 C79.6108703,309.331454 79.8865122,309.310289 80.1587302,309.264257 L80.1587302,311.022563 C79.7779822,311.079078 79.3939161,311.108663 79.0092342,311.111111 C77.0606234,311.111111 75.6468049,310.111786 75.6468049,307.196033 L75.6406579,291.383923 Z" id="Shape" fill="#000000" fill-rule="nonzero"></path>
            <path d="M89.8298361,295.238095 C93.9134234,295.238095 96.031746,298.46066 96.031746,302.22241 C96.0210535,302.545651 95.9924366,302.868009 95.9460336,303.187925 L84.601375,303.187925 C84.6870874,307.068797 87.2768287,309.26942 90.3318663,309.26942 C91.9928043,309.239038 93.5877229,308.598187 94.825649,307.46378 L95.7378747,308.999828 C94.2213912,310.351169 92.2808697,311.098871 90.2706431,311.106408 C88.2000799,311.180752 86.1923844,310.371044 84.7273755,308.870797 C83.2623666,307.370549 82.4716777,305.314562 82.5442755,303.194195 C82.5442755,298.222416 85.8319612,295.238095 89.8298361,295.238095 Z M93.944035,301.676956 C93.8277109,298.485739 91.9481587,296.949691 89.7686129,296.949691 C87.3196849,296.949691 85.1523837,298.604861 84.6809651,301.676956 L93.944035,301.676956 Z" id="Shape" fill="#000000" fill-rule="nonzero"></path>
            <path d="M99.2315866,309.459264 L101.65438,309.459264 L105.559872,303.302378 L101.988776,297.714878 L99.3830112,297.714878 L99.3830112,296.031746 L103.231719,296.031746 L106.291758,301.037344 C106.531514,301.425278 106.777579,301.907067 106.777579,301.907067 L106.840672,301.907067 C106.840672,301.907067 107.05519,301.456563 107.326493,301.006059 L110.443315,296.050517 L114.140599,296.050517 L114.140599,297.733649 L111.616856,297.733649 L108.014213,303.271093 L111.982799,309.427979 L114.285714,309.427979 L114.285714,311.111111 L110.68938,311.111111 L107.269708,305.554897 C107.079672,305.275634 106.906899,304.985193 106.752341,304.685174 L106.689248,304.685174 C106.55562,304.999701 106.39299,305.301317 106.203427,305.586182 L102.808992,311.111111 L99.2063492,311.111111 L99.2315866,309.459264 Z" id="Shape" fill="#000000" fill-rule="nonzero"></path>
            <path d="M117.015982,291.362589 L114.285714,291.362589 L114.285714,289.68254 L119.087437,289.68254 L119.087437,297.120976 C119.089133,297.538931 119.05949,297.956437 118.998751,298.370083 L119.062098,298.370083 C120.055242,296.4345 122.09555,295.241189 124.294583,295.30977 C128.399486,295.30977 130.952381,298.544958 130.952381,303.222867 C130.952381,307.900775 128.063745,311.110981 124.047529,311.110981 C121.898029,311.125464 119.929385,309.926941 118.979747,308.025685 L118.9164,308.025685 C118.977115,308.439334 119.006758,308.856839 119.005086,309.274793 L119.005086,310.742495 L116.996977,310.742495 L117.015982,291.362589 Z M123.88916,309.29353 C126.594089,309.29353 128.842917,307.076364 128.842917,303.235358 C128.842917,299.55049 126.834808,297.177186 123.977847,297.177186 C121.443956,297.177186 119.02409,298.975901 119.02409,303.266585 C119.02409,306.289426 120.620441,309.287284 123.88916,309.287284 L123.88916,309.29353 Z" id="Shape" fill="#000000" fill-rule="nonzero"></path>
            <path d="M142.107643,295.239312 C145.320372,295.257233 148.205369,297.210208 149.415374,300.186221 C150.625379,303.162233 149.921664,306.574132 147.632856,308.8286 C145.344049,311.083069 141.921717,311.735312 138.964051,310.48074 C136.006385,309.226169 134.096916,306.312303 134.127342,303.099883 C134.121958,300.992725 134.964889,298.972063 136.46615,297.493326 C137.96741,296.014589 140.000664,295.202219 142.107643,295.239312 L142.107643,295.239312 Z M142.107643,309.272909 C143.714539,309.25353 145.245984,308.588149 146.356653,307.426805 C147.467323,306.26546 148.063701,304.705934 148.011309,303.099883 C148.081481,300.95062 146.974838,298.933897 145.124212,297.838498 C143.273586,296.743099 140.97307,296.743099 139.122444,297.838498 C137.271818,298.933897 136.165175,300.95062 136.235347,303.099883 C136.18128,304.701048 136.772823,306.256797 137.877071,307.417595 C138.981318,308.578393 140.50567,309.246896 142.107643,309.272909 L142.107643,309.272909 Z" id="Shape" fill="#000000" fill-rule="nonzero"></path>
            <path d="M151.606261,309.462684 L154.026797,309.462684 L157.945156,303.287325 L154.368073,297.711394 L151.75794,297.711394 L151.75794,296.031746 L155.6131,296.031746 L158.678269,301.026981 C158.918426,301.414112 159.164904,301.894903 159.164904,301.894903 L159.228103,301.894903 C159.228103,301.894903 159.442981,301.445332 159.714738,300.995761 L162.836786,296.050478 L166.540268,296.050478 L166.540268,297.730126 L164.012294,297.730126 L160.403611,303.287325 L164.37885,309.431463 L166.666667,309.431463 L166.666667,311.111111 L163.089583,311.111111 L159.664179,305.5664 C159.473824,305.287716 159.300761,304.997876 159.145944,304.698478 L159.082745,304.698478 C158.948893,305.012354 158.78599,305.313346 158.59611,305.597621 L155.195985,311.111111 L151.587302,311.111111 L151.606261,309.462684 Z" id="Shape" fill="#000000" fill-rule="nonzero"></path>
            <path d="M51.5904756,334.128941 C53.058395,334.092826 54.4780379,334.658669 55.5245861,335.697004 C56.5711343,336.73534 57.1550259,338.157309 57.1426648,339.63756 C57.1426648,342.73065 54.6554574,345.238095 51.5873316,345.238095 C48.5192058,345.238095 46.0319985,342.73065 46.0319985,339.63756 C46.0178132,338.155638 46.6019992,336.731611 47.6503238,335.69269 C48.6986485,334.653768 50.1209715,334.089284 51.5904756,334.128941 L51.5904756,334.128941 Z M51.5904756,343.548743 C53.5208517,343.548743 55.1053949,341.862561 55.1053949,339.63756 C55.1835441,338.321001 54.5312195,337.069295 53.4114814,336.387214 C52.2917433,335.705132 50.8892079,335.705132 49.7694698,336.387214 C48.6497316,337.069295 47.9974071,338.321001 48.0755562,339.63756 C48.0692684,341.856222 49.6538116,343.542404 51.5904756,343.542404 L51.5904756,343.548743 Z" id="Shape" stroke="#000000" stroke-width="0.25" fill="#DD0C29" fill-rule="nonzero"></path>
            <path d="M58.7301587,343.029271 L59.9565507,343.029271 L59.9565507,335.584492 L58.7301587,335.584492 L58.7301587,334.126984 L61.9065139,334.126984 L66.309261,340.779508 C66.4632388,341.057476 66.5905202,341.349038 66.6894425,341.650384 L66.7323662,341.650384 C66.6915094,341.327387 66.6710301,341.002198 66.6710466,340.676697 L66.6710466,335.584492 L65.3649392,335.584492 L65.3649392,334.126984 L69.8412698,334.126984 L69.8412698,335.566348 L68.6148779,335.566348 L68.6148779,344.438397 L66.6894425,344.438397 L62.2989593,337.84635 C62.1477353,337.567067 62.0205611,337.275751 61.9187778,336.975474 L61.8574582,336.975474 C61.9055886,337.291792 61.9301821,337.61116 61.9310417,337.931018 L61.9310417,343.023223 L63.2248852,343.023223 L63.2248852,344.444444 L58.7485546,344.444444 L58.7301587,343.029271 Z" id="Shape" stroke="#000000" stroke-width="0.25" fill="#DD0C29" fill-rule="nonzero"></path>
            <polygon id="Shape" stroke="#000000" stroke-width="0.25" fill="#DD0C29" fill-rule="nonzero" points="71.4285714 343.03972 72.6486341 343.03972 72.6486341 335.586202 71.4285714 335.586202 71.4285714 334.126984 79.1454681 334.126984 79.1454681 336.785062 77.5044837 336.785062 77.5044837 335.652806 74.5885339 335.652806 74.5885339 338.486474 78.0169101 338.486474 78.0169101 340.012296 74.5885339 340.012296 74.5885339 342.918623 77.724095 342.918623 77.724095 341.756092 79.3650794 341.756092 79.3650794 344.444444 71.4346717 344.444444"></polygon>
            <path d="M84.9206349,343.04582 L86.1758004,343.04582 L86.1758004,335.591398 L84.9206349,335.591398 L84.9206349,334.132003 L89.5459197,334.132003 C90.2973309,334.104768 91.0486429,334.188494 91.7738385,334.380282 C93.8511374,334.98584 95.2380952,336.748014 95.2380952,339.291359 C95.2380952,341.713592 93.9829297,343.493933 91.9244583,344.135824 C91.1599957,344.36853 90.3593705,344.470987 89.5584714,344.438603 L84.9206349,344.438603 L84.9206349,343.04582 Z M89.4706098,342.942875 C90.0642291,342.967135 90.6570073,342.878664 91.2152898,342.682485 C92.4328004,342.204094 93.2047271,340.999033 93.2047271,339.309526 C93.2047271,337.620018 92.3888696,336.372568 91.1399799,335.906289 C90.6045276,335.72477 90.0373178,335.646584 89.4706098,335.676176 L88.1777894,335.676176 L88.1777894,342.942875 L89.4706098,342.942875 Z" id="Shape" stroke="#000000" stroke-width="0.25" fill="#DD0C29" fill-rule="nonzero"></path>
            <polygon id="Shape" stroke="#000000" stroke-width="0.25" fill="#DD0C29" fill-rule="nonzero" points="96.031746 343.03972 97.3453749 343.03972 97.3453749 335.586202 96.031746 335.586202 96.031746 334.126984 100.793651 334.126984 100.793651 335.568038 99.440613 335.568038 99.440613 343.021555 100.793651 343.021555 100.793651 344.444444 96.031746 344.444444"></polygon>
            <path d="M102.380952,343.024056 L103.640716,343.024056 L104.270597,335.583638 L102.973041,335.583638 L102.973041,334.126984 L106.462585,334.126984 L108.849836,339.941511 C108.952646,340.222723 109.038866,340.50927 109.108088,340.799788 L109.108088,340.799788 C109.178138,340.508172 109.268627,340.221428 109.378937,339.941511 L111.75359,334.126984 L115.243134,334.126984 L115.243134,335.565505 L113.983371,335.565505 L114.613253,343.005923 L115.873016,343.005923 L115.873016,344.426312 L111.463845,344.426312 L111.463845,343.005923 L112.66062,343.005923 L112.270093,337.81395 C112.259212,337.495008 112.273953,337.175735 112.314185,336.858965 L112.270093,336.858965 C112.20347,337.167956 112.117226,337.472749 112.011842,337.771641 L110.015117,342.534475 L108.320736,342.534475 L106.235828,337.789773 C106.133676,337.491356 106.05369,337.186367 105.996473,336.877098 L105.933485,336.877098 C105.973642,337.193873 105.988382,337.513141 105.977576,337.832083 L105.58705,343.024056 L106.796422,343.024056 L106.796422,344.444444 L102.387251,344.444444 L102.380952,343.024056 Z" id="Shape" stroke="#000000" stroke-width="0.25" fill="#DD0C29" fill-rule="nonzero"></path>
            <polygon id="Shape" stroke="#000000" stroke-width="0.25" fill="#DD0C29" fill-rule="nonzero" points="116.666667 343.03972 117.886729 343.03972 117.886729 335.586202 116.666667 335.586202 116.666667 334.126984 124.383563 334.126984 124.383563 336.785062 122.742579 336.785062 122.742579 335.652806 119.826629 335.652806 119.826629 338.486474 123.255005 338.486474 123.255005 340.012296 119.826629 340.012296 119.826629 342.918623 122.96219 342.918623 122.96219 341.756092 124.603175 341.756092 124.603175 344.444444 116.672767 344.444444"></polygon>
            <path d="M126.190476,343.034492 L127.411477,343.034492 L127.411477,335.585347 L126.190476,335.585347 L126.190476,334.126984 L129.365079,334.126984 L133.748474,340.78341 C133.901775,341.061541 134.028497,341.353273 134.126984,341.654797 L134.169719,341.654797 C134.129042,341.33161 134.108653,341.006231 134.108669,340.680538 L134.108669,335.585347 L132.820513,335.585347 L132.820513,334.126984 L137.301587,334.126984 L137.301587,335.567193 L136.080586,335.567193 L136.080586,344.444444 L134.163614,344.444444 L129.78022,337.836429 C129.62966,337.556982 129.503045,337.265496 129.401709,336.965042 L129.340659,336.965042 C129.388578,337.281545 129.413064,337.601101 129.413919,337.921147 L129.413919,343.016339 L130.702076,343.016339 L130.702076,344.438393 L126.245421,344.438393 L126.190476,343.034492 Z" id="Shape" stroke="#000000" stroke-width="0.25" fill="#DD0C29" fill-rule="nonzero"></path>
            <path d="M140.555556,341.572313 L140.555556,342.374993 C140.555556,343.070228 141.382937,343.481048 142.34127,343.481048 C143.299603,343.481048 144.126984,343.013345 144.126984,342.147462 C144.126984,341.054048 142.972222,340.70643 141.799603,340.251368 C140.44246,339.707821 139.115079,339.050508 139.115079,337.129133 C139.115079,334.961266 140.769841,334.126984 142.513889,334.126984 C144.115079,334.126984 145.728175,334.759015 145.728175,336.023078 L145.728175,337.413547 L144.025794,337.413547 L144.025794,336.686711 C144.025794,336.143164 143.269841,335.85243 142.513889,335.85243 C141.757937,335.85243 141.001984,336.219008 141.001984,337.034328 C141.001984,338.020297 141.94246,338.367914 143.001984,338.791375 C144.513889,339.366524 146.031746,340.004876 146.031746,342.021056 C146.031746,344.220525 144.287698,345.238095 142.376984,345.238095 C140.69246,345.238095 138.888889,344.435415 138.888889,342.811095 L138.888889,341.584954 L140.555556,341.572313 Z" id="Shape" stroke="#000000" stroke-width="0.25" fill="#DD0C29" fill-rule="nonzero"></path>
            <polygon id="Shape" stroke="#000000" stroke-width="0.25" fill="#DD0C29" fill-rule="nonzero" points="147.619048 343.03972 148.932677 343.03972 148.932677 335.586202 147.619048 335.586202 147.619048 334.126984 152.380952 334.126984 152.380952 335.568038 151.027915 335.568038 151.027915 343.021555 152.380952 343.021555 152.380952 344.444444 147.619048 344.444444"></polygon>
            <path d="M159.526984,334.128941 C160.994903,334.092826 162.414546,334.658669 163.461094,335.697004 C164.507642,336.73534 165.091534,338.157309 165.079173,339.63756 C165.079173,342.73065 162.591965,345.238095 159.52384,345.238095 C156.455714,345.238095 153.968506,342.73065 153.968506,339.63756 C153.954321,338.155638 154.538507,336.731611 155.586832,335.69269 C156.635156,334.653768 158.057479,334.089284 159.526984,334.128941 L159.526984,334.128941 Z M159.526984,343.548743 C161.45736,343.548743 163.041903,341.862561 163.041903,339.63756 C163.120052,338.321001 162.467727,337.069295 161.347989,336.387214 C160.228251,335.705132 158.825716,335.705132 157.705978,336.387214 C156.58624,337.069295 155.933915,338.321001 156.012064,339.63756 C156.018352,341.856222 157.596607,343.542404 159.526984,343.542404 L159.526984,343.548743 Z" id="Shape" stroke="#000000" stroke-width="0.25" fill="#DD0C29" fill-rule="nonzero"></path>
            <path d="M165.873016,343.034492 L167.098056,343.034492 L167.098056,335.585347 L165.873016,335.585347 L165.873016,334.126984 L169.045869,334.126984 L173.443762,340.78341 C173.59757,341.061541 173.724711,341.353273 173.823524,341.654797 L173.866401,341.654797 C173.825589,341.33161 173.805132,341.006231 173.805149,340.680538 L173.805149,335.585347 L172.512732,335.585347 L172.512732,334.126984 L176.984127,334.126984 L176.984127,335.567193 L175.759087,335.567193 L175.759087,344.444444 L173.835775,344.444444 L169.437882,337.836429 C169.286824,337.556982 169.15979,337.265496 169.058119,336.965042 L168.996867,336.965042 C169.044945,337.281545 169.069511,337.601101 169.07037,337.921147 L169.07037,343.016339 L170.362787,343.016339 L170.362787,344.438393 L165.891391,344.438393 L165.873016,343.034492 Z" id="Shape" stroke="#000000" stroke-width="0.25" fill="#DD0C29" fill-rule="nonzero"></path>
            <g id="grid" transform="translate(348.412698, 0.000000)">
                <rect id="Rectangle-path" fill="#DD0C29" fill-rule="nonzero" x="0.543128914" y="44.5251012" width="65.5437985" height="65.5452941"></rect>
                <rect id="Rectangle-path" fill="#DD0C29" fill-rule="nonzero" transform="translate(187.513697, 186.856217) rotate(-180.000000) translate(-187.513697, -186.856217) " x="154.741798" y="117.561999" width="65.5437985" height="138.588435"></rect>
                <rect id="Rectangle-path" fill="#DD0C29" fill-rule="nonzero" transform="translate(72.361003, 150.340890) rotate(-180.000000) translate(-72.361003, -150.340890) " x="0.549371775" y="117.568242" width="143.623262" height="65.5452941"></rect>
                <rect id="Rectangle-path" fill="#DD0C29" fill-rule="nonzero" transform="translate(33.321271, 223.384031) rotate(-180.000000) translate(-33.321271, -223.384031) " x="0.549371775" y="190.611384" width="65.5437985" height="65.5452941"></rect>
                <rect id="Rectangle-path" fill="#DD0C29" fill-rule="nonzero" transform="translate(110.414363, 223.384031) rotate(-180.000000) translate(-110.414363, -223.384031) " x="77.6424633" y="190.611384" width="65.5437985" height="65.5452941"></rect>
                <rect id="Rectangle-path" fill="#DD0C29" fill-rule="nonzero" transform="translate(148.355351, 77.297748) rotate(-180.000000) translate(-148.355351, -77.297748) " x="76.125448" y="44.5251012" width="144.459805" height="65.5452941"></rect>
                <path d="M17.392611,12.6857832 L203.735771,12.6857832" id="Shape" fill="#DD0C29" fill-rule="nonzero"></path>
                <path d="M28.5423609,12.6857832 L181.692229,12.6857832" id="Shape" stroke="#DD0C29" stroke-width="5"></path>
                <ellipse id="Oval" fill="#DD0C29" fill-rule="nonzero" cx="29.1291898" cy="12.6857832" rx="11.7365788" ry="11.7368466"></ellipse>
                <polygon id="Shape" fill="#DD0C29" fill-rule="nonzero" points="203.735771 12.6857832 172.677538 25.3778094 180.044114 12.6857832 172.677538 0"></polygon>
                <path d="M238.889322,58.415784 L238.889322,244.756953" id="Shape" fill="#DD0C29" fill-rule="nonzero"></path>
                <path d="M238.889322,69.5657883 L238.889322,222.719151" id="Shape" stroke="#DD0C29" stroke-width="5"></path>
                <ellipse id="Oval" fill="#DD0C29" fill-rule="nonzero" cx="238.889322" cy="70.1526307" rx="11.7365788" ry="11.7368466"></ellipse>
                <polygon id="Shape" fill="#DD0C29" fill-rule="nonzero" points="238.889322 244.756953 226.197586 213.704254 238.889322 221.070998 251.574816 213.704254"></polygon>
                <path d="M52.6148332,295.587488 C55.1619205,295.587488 60.4683524,296.548911 60.4683524,299.782787 L60.4683524,302.030268 L58.4331797,302.030268 L58.4331797,300.3509 C58.4331797,298.284466 54.8372917,297.472875 52.6772618,297.472875 C47.7953444,297.472875 44.1058135,301.218677 44.1058135,306.281753 C44.1058135,311.525876 47.7891016,315.48394 52.7958762,315.48394 C54.5064201,315.48394 58.7578085,314.822182 58.7578085,312.605916 L58.7578085,310.957763 L60.7680098,310.957763 L60.7680098,313.205244 C60.7680098,316.264316 55.6426208,317.369327 52.7396904,317.369327 C46.4468864,317.369327 41.9208122,312.456084 41.9208122,306.33794 C41.8540209,303.476583 42.9573819,300.711812 44.9758622,298.682681 C46.9943425,296.653549 49.753231,295.53569 52.6148332,295.587488 L52.6148332,295.587488 Z" id="Shape" fill="#000000" fill-rule="nonzero"></path>
                <path d="M66.3366419,311.145053 L66.3366419,312.674589 C66.3366419,314.441359 68.5216432,315.458968 70.9501162,315.458968 C73.6782465,315.458968 75.6572334,314.11048 75.6572334,311.650736 C75.6572334,308.891329 73.1101461,307.904934 70.3820158,306.91854 C67.6538855,305.932145 64.7634409,304.75846 64.7634409,301.075088 C64.7634409,297.391716 67.7287999,295.587488 71.1748592,295.587488 C74.1714325,295.587488 77.2616487,296.75493 77.2616487,298.883794 L77.2616487,301.131275 L75.2514475,301.131275 L75.2514475,299.570524 C75.2514475,298.222036 73.0664461,297.50409 71.1748592,297.50409 C68.7776005,297.50409 66.9172279,298.671532 66.9172279,300.919013 C66.9172279,303.466159 69.1958722,304.277749 71.7429595,305.289116 C74.8019615,306.425342 77.8297491,307.599027 77.8297491,311.463446 C77.8297491,315.209248 74.8643901,317.394299 70.9626019,317.394299 C67.9348143,317.394299 64.3389263,316.045811 64.3389263,313.167786 L64.3389263,311.157539 L66.3366419,311.145053 Z" id="Shape" fill="#000000" fill-rule="nonzero"></path>
                <path d="M83.2984954,311.145053 L83.2984954,312.674589 C83.2984954,314.441359 85.4834968,315.458968 87.9119698,315.458968 C90.6401,315.458968 92.619087,314.11048 92.619087,311.650736 C92.619087,308.891329 90.0719997,307.904934 87.3438694,306.91854 C84.6157391,305.932145 81.7252944,304.75846 81.7252944,301.075088 C81.7252944,297.391716 84.6906534,295.587488 88.1367127,295.587488 C91.1332861,295.587488 94.2235023,296.75493 94.2235023,298.883794 L94.2235023,301.131275 L92.213301,301.131275 L92.213301,299.570524 C92.213301,298.222036 90.0282997,297.50409 88.1367127,297.50409 C85.7394541,297.50409 83.8790815,298.671532 83.8790815,300.919013 C83.8790815,303.466159 86.1577258,304.277749 88.7048131,305.289116 C91.763815,306.425342 94.7916027,307.599027 94.7916027,311.463446 C94.7916027,315.209248 91.8262436,317.394299 87.9244555,317.394299 C84.8966678,317.394299 81.3007799,316.045811 81.3007799,313.167786 L81.3007799,311.157539 L83.2984954,311.145053 Z" id="Shape" fill="#000000" fill-rule="nonzero"></path>
                <path d="M116.560459,295.587488 C120.187562,295.587488 124.501379,297.085809 124.501379,299.7266 L124.501379,302.036511 L122.491177,302.036511 L122.491177,300.425816 C122.491177,298.446784 119.251132,297.460389 116.585431,297.460389 C111.222813,297.460389 107.801725,301.206191 107.801725,306.419099 C107.801725,311.632007 111.310213,315.471454 116.541731,315.471454 C118.639332,315.471454 122.984363,314.809696 122.984363,312.412383 L122.984363,309.166021 L118.576903,309.166021 L118.576903,307.430466 L124.96335,307.430466 L124.96335,312.911823 C124.96335,316.176914 119.688133,317.37557 116.510516,317.37557 C110.036669,317.37557 105.604238,312.668346 105.604238,306.469043 C105.604238,300.269741 109.999212,295.587488 116.560459,295.587488 Z" id="Shape" fill="#000000" fill-rule="nonzero"></path>
                <path d="M128.353224,315.340351 L130.688054,315.340351 L130.688054,304.277749 C130.713255,304.095672 130.651689,303.912306 130.521717,303.782331 C130.391745,303.652356 130.208383,303.59079 130.026311,303.615991 L127.991138,303.615991 L127.991138,301.936623 L130.850368,301.936623 C132.09894,301.936623 132.679527,302.448549 132.679527,303.647206 L132.679527,304.664815 C132.678686,305.044391 132.657847,305.423659 132.617098,305.801042 L132.679527,305.801042 C133.42867,303.522346 135.108,301.786791 137.44283,301.786791 C137.723761,301.790322 138.003779,301.819578 138.279373,301.874193 L138.279373,303.88444 C138.020942,303.846209 137.760238,303.825352 137.499015,303.82201 C134.115385,303.82201 132.735712,307.630242 132.735712,310.626884 L132.735712,315.334108 L135.070542,315.334108 L135.070542,317.013476 L128.353224,317.013476 L128.353224,315.340351 Z" id="Shape" fill="#000000" fill-rule="nonzero"></path>
                <path d="M140.17096,315.340351 L142.711804,315.340351 L142.711804,303.622234 L140.014888,303.622234 L140.014888,301.942866 L144.746977,301.942866 L144.746977,315.340351 L147.294064,315.340351 L147.294064,317.019719 L140.158474,317.019719 L140.17096,315.340351 Z M142.599433,295.949582 L144.909291,295.949582 L144.909291,298.496728 L142.599433,298.496728 L142.599433,295.949582 Z" id="Shape" fill="#000000" fill-rule="nonzero"></path>
                <path d="M156.446099,301.580772 C158.508432,301.545288 160.412478,302.682419 161.35923,304.514983 L161.421659,304.514983 C161.36194,304.128732 161.332716,303.738379 161.334259,303.347542 L161.334259,297.622707 L158.637343,297.622707 L158.637343,295.943339 L163.369432,295.943339 L163.369432,314.67235 C163.344231,314.854427 163.405796,315.037793 163.535768,315.167768 C163.66574,315.297743 163.849102,315.35931 164.031175,315.334108 L165.710505,315.334108 L165.710505,317.013476 L163.21336,317.013476 C161.927331,317.013476 161.415416,316.445363 161.415416,315.365323 L161.415416,315.096874 C161.405686,314.782491 161.445718,314.468547 161.53403,314.166667 L161.471602,314.166667 C160.506656,316.203972 158.41753,317.467307 156.16517,317.37557 C152.119796,317.37557 149.635137,314.141695 149.635137,309.4969 C149.64138,304.702273 152.425696,301.580772 156.446099,301.580772 Z M156.508527,315.54637 C159.005672,315.54637 161.396688,313.748385 161.396688,309.490657 C161.396688,306.406613 159.835972,303.434944 156.633385,303.434944 C153.936469,303.434944 151.745224,305.65121 151.745224,309.490657 C151.738981,313.180272 153.686754,315.54637 156.502284,315.54637 L156.508527,315.54637 Z" id="Shape" fill="#000000" fill-rule="nonzero"></path>
                <path d="M168.070306,312.34371 L169.943164,312.34371 L169.943164,313.423749 C169.943164,314.953285 172.128166,315.6088 173.869924,315.6088 C175.786482,315.6088 177.409626,314.772238 177.409626,313.242702 C177.409626,311.507147 175.493068,310.907819 173.333038,310.1212 C171.054394,309.284638 168.657135,308.248299 168.657135,305.626238 C168.657135,302.86683 171.354051,301.611987 173.869924,301.611987 C175.905097,301.611987 178.864213,302.479764 178.864213,304.546198 L178.864213,306.281753 L176.991355,306.281753 L176.991355,305.170499 C176.991355,304.059244 175.493068,303.372514 173.907381,303.372514 C172.321694,303.372514 170.729765,304.090459 170.729765,305.557565 C170.729765,307.205718 172.558923,307.892448 174.53791,308.616637 C176.87274,309.453199 179.451042,310.445837 179.451042,313.142814 C179.451042,315.839792 177.109969,317.400542 173.757552,317.400542 C170.973236,317.400542 168.064063,316.151942 168.064063,313.835787 L168.070306,312.34371 Z" id="Shape" fill="#000000" fill-rule="nonzero"></path>
                <polygon id="Shape" stroke="#000000" stroke-width="0.25" fill="#DD0C29" fill-rule="nonzero" points="41.165426 343.327736 42.4139982 343.327736 42.4139982 335.730001 40.4037969 335.730001 40.4037969 337.334453 38.7681673 337.334453 38.7681673 334.138035 48.0887589 334.138035 48.0887589 337.315724 46.4281579 337.315724 46.4281579 335.711272 44.4054709 335.711272 44.4054709 343.309007 45.6915003 343.309007 45.6915003 344.776113 41.165426 344.776113"></polygon>
                <path d="M48.7005593,334.138035 L52.8520619,334.138035 L52.8520619,335.62387 L51.6034897,335.62387 L52.983162,341.692069 C53.0416594,341.999425 53.0812717,342.310076 53.1017764,342.622277 L53.164205,342.622277 C53.1942413,342.308486 53.248508,341.997489 53.3265194,341.692069 L55.3117492,334.138035 L56.8849502,334.138035 L58.8764229,341.692069 C58.9542645,341.997525 59.008529,342.308509 59.0387372,342.622277 L59.1011659,342.622277 C59.1214818,342.310058 59.1610956,341.999395 59.2197802,341.692069 L60.5994525,335.62387 L59.3508803,335.62387 L59.3508803,334.138035 L63.5023829,334.138035 L63.5023829,335.62387 L62.5284966,335.62387 L60.306038,344.794842 L58.1023081,344.794842 L56.3168498,338.083613 C56.2375476,337.763683 56.1832787,337.438062 56.1545354,337.109705 L56.1108354,337.109705 C56.082526,337.438117 56.0282515,337.763771 55.948521,338.083613 L54.1630627,344.794842 L51.9593328,344.794842 L49.6931742,335.642599 L48.7192879,335.642599 L48.7005593,334.138035 Z" id="Shape" stroke="#000000" stroke-width="0.25" fill="#DD0C29" fill-rule="nonzero"></path>
                <path d="M69.7390011,333.98196 C71.1969186,333.944627 72.6074244,334.501325 73.646873,335.524316 C74.6863216,336.547307 75.2654761,337.948769 75.2514475,339.40713 C75.2514475,342.453363 72.7820437,344.922824 69.7358797,344.922824 C66.6897157,344.922824 64.2203119,342.453363 64.2203119,339.40713 C64.2062282,337.947657 64.7862326,336.545203 65.8270533,335.52202 C66.867874,334.498836 68.2800158,333.942903 69.7390011,333.98196 L69.7390011,333.98196 Z M69.7390011,343.259063 C71.6555595,343.259063 73.2287605,341.598424 73.2287605,339.40713 C73.3063502,338.110515 72.658695,336.877771 71.5469721,336.206022 C70.4352491,335.534273 69.0427532,335.534273 67.9310302,336.206022 C66.8193072,336.877771 66.171652,338.110515 66.2492418,339.40713 C66.2492418,341.592181 67.7974713,343.25282 69.7390011,343.25282 L69.7390011,343.259063 Z" id="Shape" stroke="#000000" stroke-width="0.25" fill="#DD0C29" fill-rule="nonzero"></path>
                <path d="M80.3768364,343.327736 L81.6254086,343.327736 L81.6254086,335.642599 L80.3768364,335.642599 L80.3768364,334.138035 L84.977825,334.138035 C85.7252929,334.109859 86.4726732,334.196178 87.1940407,334.393998 C89.2604277,335.018298 90.6401,336.835012 90.6401,339.457074 C90.6401,341.954275 89.3915278,343.789718 87.3438694,344.451477 C86.5834224,344.691385 85.7870028,344.797013 84.9903108,344.763627 L80.3768364,344.763627 L80.3768364,343.327736 Z M84.9029107,343.221605 C85.4934118,343.246616 86.0830762,343.155407 86.6384261,342.953156 C87.8495411,342.459959 88.6174131,341.217601 88.6174131,339.475803 C88.6174131,337.734005 87.8058411,336.447946 86.5635118,335.967235 C86.0308721,335.780098 85.4666418,335.699492 84.9029107,335.730001 L83.6168813,335.730001 L83.6168813,343.221605 L84.9029107,343.221605 Z" id="Shape" stroke="#000000" stroke-width="0.25" fill="#DD0C29" fill-rule="nonzero"></path>
                <polygon id="Shape" stroke="#000000" stroke-width="0.25" fill="#DD0C29" fill-rule="nonzero" points="92.0010438 343.327736 93.249616 343.327736 93.249616 335.642599 92.0010438 335.642599 92.0010438 334.138035 96.5146323 334.138035 96.5146323 335.62387 95.2660601 335.62387 95.2660601 343.309007 96.5146323 343.309007 96.5146323 344.776113 91.988558 344.776113"></polygon>
                <path d="M97.8630903,343.327736 L99.1116625,343.327736 L99.7359486,335.642599 L98.4499193,335.642599 L98.4499193,334.138035 L101.908464,334.138035 L104.274509,340.143804 C104.376405,340.434266 104.461859,340.730237 104.530466,341.030311 L104.530466,341.030311 C104.599894,340.729104 104.689579,340.432928 104.798909,340.143804 L107.152468,334.138035 L110.611013,334.138035 L110.611013,335.62387 L109.36244,335.62387 L109.986727,343.309007 L111.235299,343.309007 L111.235299,344.776113 L106.865296,344.776113 L106.865296,343.309007 L108.05144,343.309007 L107.664382,337.946267 C107.653598,337.616835 107.668208,337.287061 107.708082,336.959873 L107.664382,336.959873 C107.598291,337.279011 107.512813,337.593826 107.408425,337.902566 L105.373252,342.803324 L103.693923,342.803324 L101.65875,337.902566 C101.557505,337.594333 101.478231,337.279313 101.421521,336.959873 L101.359093,336.959873 C101.398844,337.287071 101.413454,337.616835 101.402793,337.946267 L101.015735,343.309007 L102.214364,343.309007 L102.214364,344.776113 L97.8443617,344.776113 L97.8630903,343.327736 Z" id="Shape" stroke="#000000" stroke-width="0.25" fill="#DD0C29" fill-rule="nonzero"></path>
                <polygon id="Shape" stroke="#000000" stroke-width="0.25" fill="#DD0C29" fill-rule="nonzero" points="112.571271 343.327736 113.819843 343.327736 113.819843 335.642599 112.571271 335.642599 112.571271 334.138035 120.46849 334.138035 120.46849 336.878714 118.789161 336.878714 118.789161 335.711272 115.805073 335.711272 115.805073 338.632998 119.313561 338.632998 119.313561 340.206234 115.805073 340.206234 115.805073 343.202876 118.988932 343.202876 118.988932 342.004219 120.668262 342.004219 120.668262 344.776113 112.552542 344.776113"></polygon>
                <path d="M122.160306,343.327736 L123.408878,343.327736 L123.408878,335.642599 L122.160306,335.642599 L122.160306,334.138035 L125.394108,334.138035 L129.876482,341.005339 C130.033245,341.292281 130.162828,341.593256 130.263539,341.904331 L130.307239,341.904331 C130.265482,341.570921 130.244632,341.235223 130.244811,340.899208 L130.244811,335.642599 L128.927567,335.642599 L128.927567,334.138035 L133.484856,334.138035 L133.484856,335.62387 L132.236283,335.62387 L132.236283,344.782356 L130.226082,344.782356 L125.743708,337.964996 C125.589749,337.676697 125.460275,337.375976 125.356651,337.066004 L125.294222,337.066004 C125.343068,337.392551 125.368106,337.722219 125.369136,338.052398 L125.369136,343.309007 L126.68638,343.309007 L126.68638,344.776113 L122.129091,344.776113 L122.160306,343.327736 Z" id="Shape" stroke="#000000" stroke-width="0.25" fill="#DD0C29" fill-rule="nonzero"></path>
                <path d="M136.606286,341.367433 L136.606286,342.160294 C136.606286,342.847025 137.474044,343.25282 138.479145,343.25282 C139.484245,343.25282 140.352003,342.790838 140.352003,341.935546 C140.352003,340.855507 139.140888,340.512142 137.911044,340.062645 C136.487672,339.525747 135.095514,338.876475 135.095514,336.978602 C135.095514,334.837251 136.831029,334.013175 138.660187,334.013175 C140.339517,334.013175 142.031332,334.637475 142.031332,335.886076 L142.031332,337.259537 L140.21466,337.259537 L140.21466,336.541591 C140.21466,336.004693 139.421817,335.717515 138.628973,335.717515 C137.83613,335.717515 137.043286,336.079609 137.043286,336.884957 C137.043286,337.858865 138.029659,338.20223 139.140888,338.620511 C140.726575,339.188625 142.318504,339.819168 142.318504,341.810686 C142.318504,343.983252 140.489346,344.988375 138.485387,344.988375 C136.718658,344.988375 134.827071,344.195514 134.827071,342.591062 L134.827071,341.379919 L136.606286,341.367433 Z" id="Shape" stroke="#000000" stroke-width="0.25" fill="#DD0C29" fill-rule="nonzero"></path>
                <polygon id="Shape" stroke="#000000" stroke-width="0.25" fill="#DD0C29" fill-rule="nonzero" points="143.766848 343.327736 145.01542 343.327736 145.01542 335.642599 143.766848 335.642599 143.766848 334.138035 148.292922 334.138035 148.292922 335.62387 147.006893 335.62387 147.006893 343.309007 148.292922 343.309007 148.292922 344.776113 143.766848 344.776113"></polygon>
                <path d="M155.110126,333.98196 C156.568044,333.944627 157.97855,334.501325 159.017998,335.524316 C160.057447,336.547307 160.636601,337.948769 160.622573,339.40713 C160.622573,342.453363 158.153169,344.922824 155.107005,344.922824 C152.060841,344.922824 149.591437,342.453363 149.591437,339.40713 C149.577354,337.947657 150.157358,336.545203 151.198179,335.52202 C152.238999,334.498836 153.651141,333.942903 155.110126,333.98196 L155.110126,333.98196 Z M155.110126,343.259063 C157.026685,343.259063 158.599886,341.598424 158.599886,339.40713 C158.677476,338.110515 158.02982,336.877771 156.918097,336.206022 C155.806374,335.534273 154.413878,335.534273 153.302155,336.206022 C152.190433,336.877771 151.542777,338.110515 151.620367,339.40713 C151.620367,341.592181 153.193568,343.25282 155.110126,343.25282 L155.110126,343.259063 Z" id="Shape" stroke="#000000" stroke-width="0.25" fill="#DD0C29" fill-rule="nonzero"></path>
                <path d="M161.908602,343.327736 L163.157174,343.327736 L163.157174,335.642599 L161.908602,335.642599 L161.908602,334.138035 L165.142404,334.138035 L169.624778,341.005339 C169.781541,341.292281 169.911124,341.593256 170.011836,341.904331 L170.055536,341.904331 C170.01394,341.570906 169.99309,341.235218 169.993107,340.899208 L169.993107,335.642599 L168.675864,335.642599 L168.675864,334.138035 L173.233152,334.138035 L173.233152,335.62387 L171.98458,335.62387 L171.98458,344.782356 L170.024322,344.782356 L165.541947,337.964996 C165.387988,337.676697 165.258514,337.375976 165.15489,337.066004 L165.092461,337.066004 C165.141619,337.392516 165.166658,337.722207 165.167376,338.052398 L165.167376,343.309007 L166.484619,343.309007 L166.484619,344.776113 L161.927331,344.776113 L161.908602,343.327736 Z" id="Shape" stroke="#000000" stroke-width="0.25" fill="#DD0C29" fill-rule="nonzero"></path>
                <path d="M176.354583,341.367433 L176.354583,342.160294 C176.354583,342.847025 177.22234,343.25282 178.227441,343.25282 C179.232542,343.25282 180.100299,342.790838 180.100299,341.935546 C180.100299,340.855507 178.889184,340.512142 177.659341,340.062645 C176.235968,339.525747 174.84381,338.876475 174.84381,336.978602 C174.84381,334.837251 176.579326,334.013175 178.408484,334.013175 C180.087814,334.013175 181.779629,334.637475 181.779629,335.886076 L181.779629,337.259537 L179.994171,337.259537 L179.994171,336.541591 C179.994171,336.004693 179.201327,335.717515 178.408484,335.717515 C177.615641,335.717515 176.822797,336.079609 176.822797,336.884957 C176.822797,337.858865 177.809169,338.20223 178.920399,338.620511 C180.506085,339.188625 182.098015,339.819168 182.098015,341.810686 C182.098015,343.983252 180.268857,344.988375 178.264898,344.988375 C176.498168,344.988375 174.606582,344.195514 174.606582,342.591062 L174.606582,341.379919 L176.354583,341.367433 Z" id="Shape" stroke="#000000" stroke-width="0.25" fill="#DD0C29" fill-rule="nonzero"></path>
            </g>
        </g>
    </g>
</svg>