<?xml version="1.0" standalone="no"?>
<!DOCTYPE svg PUBLIC "-//W3C//DTD SVG 20010904//EN"
 "http://www.w3.org/TR/2001/REC-SVG-20010904/DTD/svg10.dtd">
<svg version="1.0" xmlns="http://www.w3.org/2000/svg"
 width="700.000000pt" height="700.000000pt" viewBox="0 0 700.000000 700.000000"
 preserveAspectRatio="xMidYMid meet">
<metadata>
Created by potrace 1.11, written by Peter Selinger 2001-2013
</metadata>
<g transform="translate(0.000000,700.000000) scale(0.100000,-0.100000)"
fill="#000000" stroke="none">
<path d="M3111 6987 c-48 -24 -39 -4 -273 -612 -44 -115 -100 -259 -123 -320
-23 -60 -77 -200 -119 -310 -42 -110 -81 -209 -86 -220 -4 -11 -25 -65 -46
-120 -20 -55 -45 -119 -55 -142 -11 -23 -19 -44 -19 -48 0 -3 -68 -182 -151
-398 -82 -215 -174 -455 -204 -532 -208 -542 -537 -1408 -626 -1650 -33 -88
-66 -173 -73 -190 -8 -16 -17 -41 -21 -55 -16 -55 -86 -180 -142 -255 -69 -92
-166 -193 -253 -261 -33 -26 -59 -52 -57 -58 3 -8 225 -12 748 -13 806 -2 787
-3 823 52 9 13 40 88 70 167 94 249 262 689 299 783 33 85 151 394 378 990 55
143 104 269 109 280 5 11 26 67 48 125 22 58 43 105 47 105 4 0 18 -20 32 -45
14 -25 49 -85 78 -135 29 -49 62 -106 73 -125 10 -19 104 -179 207 -355 103
-176 197 -338 210 -360 12 -22 68 -118 124 -212 55 -95 101 -177 101 -183 0
-5 5 -10 10 -10 6 0 10 -4 10 -9 0 -5 27 -56 61 -113 34 -57 71 -121 84 -143
12 -22 62 -107 110 -190 95 -162 147 -251 277 -475 l84 -145 620 -2 c598 -1
620 -1 651 18 35 22 58 76 49 113 -3 13 -42 86 -87 162 -45 76 -91 157 -104
179 -36 65 -603 1037 -623 1070 -11 17 -72 122 -137 235 -65 113 -130 225
-146 250 -15 25 -36 61 -47 80 -23 43 -737 1266 -792 1360 -18 29 -353 605
-370 635 -9 17 -74 127 -143 246 -69 120 -135 232 -145 250 -11 19 -79 135
-151 258 -72 124 -131 226 -131 228 0 3 -13 24 -30 48 -40 58 -98 79 -149 52z"/>
<path d="M826 1031 c-2 -9 -4 -244 -4 -522 l1 -505 139 0 c92 -1 138 3 139 10
0 11 0 957 -1 1006 l0 25 -135 1 c-115 1 -135 -2 -139 -15z"/>
<path d="M1245 1041 c-3 -2 35 -42 83 -88 171 -166 432 -426 432 -431 0 -3
-48 -52 -107 -110 -248 -240 -410 -403 -404 -406 3 -2 83 -3 177 -2 l171 1 35
35 c19 19 137 135 262 258 125 123 225 227 222 230 -22 24 -198 199 -348 345
l-178 172 -170 0 c-94 1 -173 -1 -175 -4z"/>
<path d="M2229 1025 c0 -29 0 -976 0 -1002 l1 -23 1010 0 1010 0 0 523 0 523
-1010 0 c-1007 -1 -1010 -1 -1011 -21z"/>
<path d="M4384 1018 c-11 -13 -19 -29 -18 -35 1 -7 2 -19 3 -27 0 -7 11 -24
24 -38 21 -23 23 -32 22 -174 0 -124 -3 -149 -15 -150 -8 -1 -20 -2 -25 -3
-15 -1 -15 -138 -1 -138 42 1 41 3 41 -156 0 -144 -1 -153 -23 -175 -12 -12
-22 -25 -23 -29 0 -5 -2 -16 -4 -27 -2 -10 8 -30 21 -43 20 -20 32 -24 56 -19
59 12 76 69 33 112 -25 24 -25 28 -25 185 l0 159 25 -4 c21 -4 25 -1 26 22 0
15 1 46 2 70 2 41 -1 45 -35 45 -16 0 -18 14 -18 153 0 150 1 154 25 178 14
14 25 37 25 51 0 58 -77 87 -116 43z"/>
<path d="M5104 939 c-76 -56 -161 -119 -189 -139 -160 -119 -283 -209 -308
-225 -15 -10 -25 -20 -22 -24 4 -3 101 -6 216 -6 l210 0 15 30 c47 100 200 78
220 -31 6 -35 -23 -98 -55 -117 -58 -34 -138 -11 -164 45 l-12 28 -224 0
c-123 0 -222 -2 -220 -4 2 -2 103 -76 224 -165 121 -88 231 -169 244 -178 13
-10 65 -48 115 -85 l91 -66 16 62 c60 237 228 354 514 360 l100 2 0 96 1 96
-96 0 c-171 0 -304 47 -396 138 -60 59 -90 111 -119 212 l-22 73 -139 -102z"/>
<path d="M5930 538 l0 -338 70 -1 c39 0 88 -1 110 -1 22 0 45 1 50 1 6 1 10
121 10 339 l0 339 -120 0 -120 0 0 -339z"/>
</g>
</svg>
