<?xml version="1.0" standalone="no"?>
<!DOCTYPE svg PUBLIC "-//W3C//DTD SVG 20010904//EN"
 "http://www.w3.org/TR/2001/REC-SVG-20010904/DTD/svg10.dtd">
<svg version="1.0" xmlns="http://www.w3.org/2000/svg"
 width="520.000000pt" height="520.000000pt" viewBox="0 0 520.000000 520.000000"
 preserveAspectRatio="xMidYMid meet">
<metadata>
Created by potrace 1.11, written by Peter Selinger 2001-2013
</metadata>
<g transform="translate(0.000000,520.000000) scale(0.100000,-0.100000)"
fill="#000000" stroke="none">
<path d="M1650 3395 c0 -8 -6 -15 -12 -15 -9 0 -9 -3 -2 -8 13 -9 13 -135 0
-144 -8 -5 -8 -8 0 -8 6 0 11 -16 11 -35 0 -19 -5 -35 -11 -35 -7 0 -8 -3 -1
-8 15 -10 15 -72 1 -72 -8 0 -8 -3 0 -8 6 -4 10 -20 10 -37 0 -16 -4 -33 -10
-37 -8 -6 -8 -8 0 -8 15 0 15 -272 0 -282 -8 -6 -8 -8 0 -8 15 0 15 -230 0
-230 -8 0 -7 -3 0 -8 15 -9 14 -182 -1 -182 -7 0 -7 -3 0 -8 15 -10 15 -72 1
-72 -8 0 -8 -3 0 -8 6 -4 10 -20 10 -37 0 -16 -4 -33 -10 -37 -7 -5 -7 -8 2
-8 6 0 12 -7 12 -15 0 -12 18 -15 98 -16 53 0 112 -1 130 -2 30 -2 37 4 33 27
-1 5 4 13 11 17 9 6 9 9 1 9 -14 0 -14 39 1 59 8 11 8 13 -1 8 -15 -9 -14 32
1 52 8 11 8 13 0 8 -7 -4 -11 2 -11 18 0 14 5 25 11 25 7 0 8 3 1 8 -16 10
-17 54 -2 45 9 -5 9 -3 1 8 -14 18 -14 50 0 68 8 11 8 13 -1 8 -15 -9 -14 32
1 52 8 11 8 13 0 8 -7 -4 -11 2 -11 18 0 14 5 25 11 25 7 0 8 3 1 8 -16 10
-17 54 -2 45 9 -5 9 -3 1 8 -14 18 -14 50 0 68 8 11 8 13 -1 8 -15 -9 -14 32
1 52 8 11 8 13 0 8 -7 -4 -11 2 -11 18 0 14 5 25 11 25 7 0 8 3 1 8 -16 10
-17 54 -2 45 9 -5 9 -3 1 8 -6 8 -11 23 -11 34 0 11 5 26 11 34 8 11 8 13 -1
8 -15 -9 -14 32 1 52 8 11 8 13 0 8 -7 -4 -11 2 -11 18 0 14 5 25 11 25 7 0 8
3 1 8 -16 10 -17 54 -2 45 9 -5 9 -3 1 8 -6 8 -11 23 -11 34 0 11 5 26 11 34
8 11 8 13 -1 8 -15 -9 -14 32 1 52 8 11 8 13 0 8 -7 -4 -11 2 -11 18 0 14 5
25 11 25 6 0 6 4 -2 9 -15 9 -13 52 3 63 6 5 6 8 -1 8 -6 0 -10 17 -9 40 l2
40 -134 0 c-112 0 -133 -2 -133 -15z"/>
<path d="M3267 3403 c-2 -5 -3 -27 -2 -50 1 -29 -1 -40 -9 -36 -8 5 -8 3 0 -8
13 -17 13 -357 0 -378 -6 -9 -5 -12 1 -8 6 4 9 -11 9 -38 l-1 -43 -20 21 c-11
12 -19 25 -17 29 1 5 -1 7 -5 6 -5 -1 -29 7 -54 19 -72 32 -190 45 -265 29
-70 -15 -224 -126 -224 -161 0 -7 -3 -15 -7 -17 -13 -5 -51 -93 -58 -132 -4
-20 -10 -34 -14 -32 -3 2 -6 -45 -6 -105 0 -60 4 -109 9 -109 4 0 6 -9 3 -20
-3 -11 -1 -20 3 -20 5 0 11 -14 15 -31 8 -37 39 -92 72 -127 12 -13 20 -29 17
-34 -3 -4 -2 -7 3 -6 4 1 33 -14 63 -34 31 -20 79 -43 108 -51 71 -22 207 -19
249 4 17 10 34 15 37 12 3 -4 6 -1 6 5 0 6 8 13 18 16 10 3 33 21 53 40 32 31
35 32 34 13 0 -12 -4 -28 -9 -36 -6 -10 -6 -12 3 -7 8 5 12 3 10 -5 -5 -38 -1
-39 121 -39 l120 0 0 28 c0 15 6 34 13 41 10 11 10 13 0 7 -10 -5 -13 6 -13
46 0 30 6 60 13 67 7 9 8 11 0 7 -15 -8 -16 93 0 113 9 12 9 13 0 7 -10 -5
-13 6 -13 46 0 30 6 60 13 67 7 9 7 11 1 8 -8 -5 -12 10 -13 48 0 37 4 55 12
55 7 0 6 4 -3 10 -13 8 -13 13 -2 31 8 11 9 18 4 15 -15 -9 -13 95 1 113 9 12
9 13 0 7 -10 -5 -13 6 -13 46 0 30 6 60 13 67 7 9 8 11 0 7 -15 -8 -16 93 0
113 9 12 9 13 0 7 -10 -5 -13 6 -13 46 0 30 6 60 13 67 7 9 7 11 1 8 -8 -5
-12 10 -13 48 0 37 4 55 12 55 9 0 9 2 1 8 -8 4 -11 34 -10 80 l1 72 -132 0
c-72 0 -134 -3 -136 -7z m-105 -704 c13 -7 25 -13 28 -13 3 -1 4 -5 2 -9 -1
-5 2 -6 7 -3 14 9 72 -66 67 -87 -2 -9 0 -15 5 -11 5 3 9 -1 9 -10 0 -8 3 -22
7 -32 5 -13 3 -15 -8 -9 -12 8 -12 6 -1 -8 8 -9 11 -21 7 -28 -4 -6 -8 -29 -9
-50 -3 -47 -45 -104 -100 -132 -43 -22 -120 -26 -183 -8 -46 13 -108 74 -99
98 3 8 2 11 -3 8 -23 -14 -34 101 -16 169 7 27 21 56 31 63 10 7 14 13 9 13
-5 0 6 11 25 25 19 14 40 23 48 20 7 -2 10 -1 7 4 -12 21 128 21 167 0z"/>
<path d="M1010 3061 l0 -129 -52 0 c-29 0 -69 -1 -88 -1 l-35 -1 3 -102 c1
-56 5 -104 8 -107 2 -3 40 -5 84 -5 l79 1 3 -251 c3 -229 5 -254 23 -286 11
-19 26 -39 33 -43 7 -5 9 -13 6 -19 -4 -6 -3 -8 4 -4 6 3 16 0 24 -7 7 -7 29
-19 48 -27 19 -7 40 -16 45 -20 16 -11 227 -10 272 2 42 10 42 10 45 62 6 95
-2 178 -16 167 -14 -12 -122 -22 -131 -12 -4 3 -10 6 -13 6 -29 3 -52 21 -62
49 -14 42 -19 176 -7 176 6 0 6 5 0 13 -5 6 -8 23 -6 37 5 35 5 41 0 73 -2 15
0 27 6 27 6 0 6 4 -1 13 -5 6 -7 19 -3 28 5 13 24 16 106 16 55 1 106 2 113 2
9 1 12 29 12 106 l0 105 -42 1 c-24 0 -73 0 -110 -1 -68 -1 -81 5 -83 42 -1
10 2 18 7 18 5 0 6 6 1 13 -10 16 -10 38 -1 58 3 8 3 21 -2 29 -5 9 -5 19 2
27 6 8 7 13 1 13 -6 0 -10 12 -9 28 l1 27 -132 3 -133 3 0 -130z"/>
<path d="M490 2970 c-17 -17 -36 -27 -42 -24 -6 4 -8 3 -4 -4 3 -6 -17 -32
-46 -59 -28 -26 -60 -58 -71 -70 -11 -12 -25 -19 -31 -16 -6 3 -8 3 -4 -2 4
-4 -13 -26 -38 -49 -25 -23 -76 -71 -112 -108 -36 -37 -73 -70 -83 -73 -26 -9
-20 -23 31 -74 25 -24 44 -48 42 -52 -1 -5 2 -8 7 -7 13 4 211 -188 203 -197
-4 -5 -2 -6 3 -3 6 4 26 -9 45 -28 19 -19 37 -34 41 -34 4 0 11 -9 14 -21 4
-11 9 -18 12 -15 7 7 33 -20 33 -35 0 -7 3 -9 7 -6 3 4 16 -1 27 -10 12 -10
18 -14 13 -9 -4 5 12 27 35 49 l42 39 -113 107 c-62 59 -146 138 -187 176 -40
37 -71 72 -68 76 3 5 -2 9 -10 9 -9 0 -16 3 -16 7 0 11 120 123 131 123 6 0 7
5 4 10 -3 6 2 10 11 10 10 0 14 3 11 7 -8 7 34 39 45 35 5 -1 7 2 5 6 -4 15
92 104 104 96 7 -4 9 -3 5 4 -3 6 1 17 9 24 28 23 65 63 64 68 0 3 -20 22 -44
43 l-43 38 -32 -31z"/>
<path d="M4632 2957 l-42 -43 124 -117 c67 -64 136 -128 151 -141 26 -22 27
-27 14 -43 -13 -16 -12 -17 3 -5 18 14 43 7 32 -9 -3 -5 0 -8 8 -7 7 2 12 -4
10 -12 -2 -8 -1 -12 3 -8 4 4 17 -2 28 -13 l21 -20 -74 -70 c-41 -39 -109
-103 -150 -142 -41 -40 -78 -71 -82 -69 -5 1 -7 -1 -6 -5 2 -5 -17 -27 -42
-50 -25 -23 -43 -43 -40 -45 3 -2 23 -20 46 -41 l40 -37 39 34 c21 19 44 32
49 29 6 -3 8 -3 4 2 -10 11 11 37 23 29 5 -3 8 -2 7 3 -2 4 10 23 26 41 22 24
32 29 39 20 6 -10 8 -9 4 3 -3 10 10 30 35 53 34 32 41 36 56 24 15 -11 15
-11 5 3 -11 13 -8 20 15 42 16 15 32 24 37 20 4 -5 5 -3 2 3 -8 14 26 47 37
37 4 -5 6 -3 4 4 -1 6 21 34 51 62 l54 50 -61 58 c-33 32 -119 114 -192 183
-73 69 -146 139 -164 155 -75 71 -67 70 -114 22z"/>
<path d="M4197 2948 c-27 -5 -54 -13 -60 -18 -55 -42 -101 -88 -110 -110 -11
-22 -12 -17 -15 45 l-3 70 -122 -2 c-67 -1 -128 -2 -136 -2 -9 -1 -12 -9 -9
-26 3 -14 1 -25 -6 -25 -7 0 -7 -3 -1 -8 11 -8 13 -87 2 -98 -4 -4 -2 -14 5
-21 9 -11 9 -17 -3 -24 -10 -6 -11 -9 -1 -9 9 0 10 -5 3 -18 -7 -13 -6 -23 2
-31 9 -9 8 -14 -3 -21 -11 -7 -11 -10 -2 -10 9 0 10 -5 3 -18 -7 -13 -6 -23 2
-31 9 -9 8 -14 -3 -21 -11 -7 -11 -10 -2 -10 9 0 10 -5 3 -18 -7 -13 -6 -23 2
-32 9 -10 9 -14 0 -17 -8 -3 -10 -11 -5 -21 9 -21 9 -53 -1 -70 -5 -6 -4 -12
2 -12 10 0 9 -25 -1 -36 -4 -3 -2 -18 3 -32 7 -18 6 -28 -3 -34 -8 -5 -9 -11
-3 -15 11 -9 13 -129 2 -139 -4 -4 -1 -14 6 -22 9 -12 9 -16 0 -19 -7 -3 -13
-9 -13 -14 0 -5 62 -9 140 -9 l140 0 1 68 c0 37 1 140 1 230 0 89 4 162 8 162
4 0 5 11 2 25 -2 15 0 25 7 25 7 0 9 5 6 10 -4 6 3 26 15 45 20 32 31 40 52
36 5 0 7 2 5 7 -1 4 3 9 8 10 6 2 15 8 22 14 7 5 17 7 23 3 5 -3 10 -2 10 3 0
10 127 8 160 -3 19 -6 20 -1 21 87 1 95 -1 151 -6 156 -7 7 -105 7 -148 0z"/>
<path d="M2208 2752 c-28 -3 -98 -63 -98 -82 0 -6 -3 -9 -7 -7 -13 8 -7 -76 6
-101 6 -12 9 -28 5 -34 -4 -6 -3 -8 3 -5 6 4 18 -2 28 -13 10 -11 24 -20 32
-20 7 0 13 -4 13 -9 0 -14 92 -10 122 5 69 35 102 94 85 153 -24 89 -86 126
-189 113z"/>
<path d="M2200 2341 c-72 -27 -107 -85 -101 -167 1 -19 53 -86 65 -85 3 1 7 1
9 0 4 -1 51 -9 80 -13 38 -6 40 -9 32 -47 -10 -44 -106 -138 -168 -164 -42
-18 -47 -23 -47 -53 0 -30 2 -33 23 -27 12 4 35 13 51 21 16 8 34 14 41 14 37
0 181 149 199 208 4 12 10 20 14 18 8 -5 11 24 12 112 1 95 -39 156 -120 183
-44 14 -52 14 -90 0z"/>
</g>
</svg>
